%TF.GenerationSoftware,KiCad,Pcbnew,9.0.6*%
%TF.CreationDate,2025-12-15T19:17:13+00:00*%
%TF.ProjectId,VoltaPCB,566f6c74-6150-4434-922e-6b696361645f,rev?*%
%TF.SameCoordinates,Original*%
%TF.FileFunction,Drillmap*%
%TF.FilePolarity,Positive*%
%FSLAX45Y45*%
G04 Gerber Fmt 4.5, Leading zero omitted, Abs format (unit mm)*
G04 Created by KiCad (PCBNEW 9.0.6) date 2025-12-15 19:17:13*
%MOMM*%
%LPD*%
G01*
G04 APERTURE LIST*
%ADD10C,0.200000*%
%ADD11C,0.100000*%
%ADD12C,0.101600*%
%ADD13C,0.250000*%
%ADD14C,0.320000*%
G04 APERTURE END LIST*
D10*
X9570000Y-2945000D02*
X18207000Y-2945000D01*
X18207000Y-13630000D01*
X9570000Y-13630000D01*
X9570000Y-2945000D01*
D11*
X9912000Y-7075000D02*
X9942000Y-7105000D01*
X9942000Y-7075000D02*
X9912000Y-7105000D01*
X10423000Y-5927000D02*
X10453000Y-5957000D01*
X10453000Y-5927000D02*
X10423000Y-5957000D01*
X10465000Y-5802000D02*
X10495000Y-5832000D01*
X10495000Y-5802000D02*
X10465000Y-5832000D01*
X10743000Y-5660000D02*
X10773000Y-5690000D01*
X10773000Y-5660000D02*
X10743000Y-5690000D01*
X12253000Y-7227000D02*
X12283000Y-7257000D01*
X12283000Y-7227000D02*
X12253000Y-7257000D01*
X12831000Y-3447000D02*
X12861000Y-3477000D01*
X12861000Y-3447000D02*
X12831000Y-3477000D01*
X13924000Y-4431000D02*
X13954000Y-4461000D01*
X13954000Y-4431000D02*
X13924000Y-4461000D01*
X14112000Y-4416000D02*
X14142000Y-4446000D01*
X14142000Y-4416000D02*
X14112000Y-4446000D01*
X14131000Y-6064000D02*
X14161000Y-6094000D01*
X14161000Y-6064000D02*
X14131000Y-6094000D01*
X14230000Y-4711000D02*
X14260000Y-4741000D01*
X14260000Y-4711000D02*
X14230000Y-4741000D01*
X14861000Y-4385000D02*
X14891000Y-4415000D01*
X14891000Y-4385000D02*
X14861000Y-4415000D01*
X14876000Y-4710000D02*
X14906000Y-4740000D01*
X14906000Y-4710000D02*
X14876000Y-4740000D01*
X14937000Y-4140000D02*
X14967000Y-4170000D01*
X14967000Y-4140000D02*
X14937000Y-4170000D01*
X13780450Y-3252000D02*
G75*
G02*
X13691550Y-3252000I-44450J0D01*
G01*
X13691550Y-3252000D02*
G75*
G02*
X13780450Y-3252000I44450J0D01*
G01*
X13780450Y-3506000D02*
G75*
G02*
X13691550Y-3506000I-44450J0D01*
G01*
X13691550Y-3506000D02*
G75*
G02*
X13780450Y-3506000I44450J0D01*
G01*
X13780450Y-3760000D02*
G75*
G02*
X13691550Y-3760000I-44450J0D01*
G01*
X13691550Y-3760000D02*
G75*
G02*
X13780450Y-3760000I44450J0D01*
G01*
X13780450Y-4014000D02*
G75*
G02*
X13691550Y-4014000I-44450J0D01*
G01*
X13691550Y-4014000D02*
G75*
G02*
X13780450Y-4014000I44450J0D01*
G01*
X13780450Y-4268000D02*
G75*
G02*
X13691550Y-4268000I-44450J0D01*
G01*
X13691550Y-4268000D02*
G75*
G02*
X13780450Y-4268000I44450J0D01*
G01*
X13780450Y-4522000D02*
G75*
G02*
X13691550Y-4522000I-44450J0D01*
G01*
X13691550Y-4522000D02*
G75*
G02*
X13780450Y-4522000I44450J0D01*
G01*
X13780450Y-4776000D02*
G75*
G02*
X13691550Y-4776000I-44450J0D01*
G01*
X13691550Y-4776000D02*
G75*
G02*
X13780450Y-4776000I44450J0D01*
G01*
X15304450Y-3252000D02*
G75*
G02*
X15215550Y-3252000I-44450J0D01*
G01*
X15215550Y-3252000D02*
G75*
G02*
X15304450Y-3252000I44450J0D01*
G01*
X15304450Y-3506000D02*
G75*
G02*
X15215550Y-3506000I-44450J0D01*
G01*
X15215550Y-3506000D02*
G75*
G02*
X15304450Y-3506000I44450J0D01*
G01*
X15304450Y-3760000D02*
G75*
G02*
X15215550Y-3760000I-44450J0D01*
G01*
X15215550Y-3760000D02*
G75*
G02*
X15304450Y-3760000I44450J0D01*
G01*
X15304450Y-4014000D02*
G75*
G02*
X15215550Y-4014000I-44450J0D01*
G01*
X15215550Y-4014000D02*
G75*
G02*
X15304450Y-4014000I44450J0D01*
G01*
X15304450Y-4268000D02*
G75*
G02*
X15215550Y-4268000I-44450J0D01*
G01*
X15215550Y-4268000D02*
G75*
G02*
X15304450Y-4268000I44450J0D01*
G01*
X15304450Y-4522000D02*
G75*
G02*
X15215550Y-4522000I-44450J0D01*
G01*
X15215550Y-4522000D02*
G75*
G02*
X15304450Y-4522000I44450J0D01*
G01*
X15304450Y-4776000D02*
G75*
G02*
X15215550Y-4776000I-44450J0D01*
G01*
X15215550Y-4776000D02*
G75*
G02*
X15304450Y-4776000I44450J0D01*
G01*
X10354750Y-4949000D02*
X10354750Y-5049000D01*
X10304750Y-4999000D02*
X10404750Y-4999000D01*
X10608750Y-4949000D02*
X10608750Y-5049000D01*
X10558750Y-4999000D02*
X10658750Y-4999000D01*
X10862750Y-4949000D02*
X10862750Y-5049000D01*
X10812750Y-4999000D02*
X10912750Y-4999000D01*
X11116750Y-4949000D02*
X11116750Y-5049000D01*
X11066750Y-4999000D02*
X11166750Y-4999000D01*
X11370750Y-4949000D02*
X11370750Y-5049000D01*
X11320750Y-4999000D02*
X11420750Y-4999000D01*
X11624750Y-4949000D02*
X11624750Y-5049000D01*
X11574750Y-4999000D02*
X11674750Y-4999000D01*
X11744000Y-8389000D02*
X11744000Y-8489000D01*
X11694000Y-8439000D02*
X11794000Y-8439000D01*
X11744000Y-8643000D02*
X11744000Y-8743000D01*
X11694000Y-8693000D02*
X11794000Y-8693000D01*
X11744000Y-8897000D02*
X11744000Y-8997000D01*
X11694000Y-8947000D02*
X11794000Y-8947000D01*
X11744000Y-9151000D02*
X11744000Y-9251000D01*
X11694000Y-9201000D02*
X11794000Y-9201000D01*
X11878750Y-4949000D02*
X11878750Y-5049000D01*
X11828750Y-4999000D02*
X11928750Y-4999000D01*
X12132750Y-4949000D02*
X12132750Y-5049000D01*
X12082750Y-4999000D02*
X12182750Y-4999000D01*
X12386750Y-4949000D02*
X12386750Y-5049000D01*
X12336750Y-4999000D02*
X12436750Y-4999000D01*
X15525500Y-5972500D02*
X15525500Y-6072500D01*
X15475500Y-6022500D02*
X15575500Y-6022500D01*
X15525500Y-6226500D02*
X15525500Y-6326500D01*
X15475500Y-6276500D02*
X15575500Y-6276500D01*
X15525500Y-6480500D02*
X15525500Y-6580500D01*
X15475500Y-6530500D02*
X15575500Y-6530500D01*
X15525500Y-6734500D02*
X15525500Y-6834500D01*
X15475500Y-6784500D02*
X15575500Y-6784500D01*
X16201000Y-8458000D02*
X16201000Y-8558000D01*
X16151000Y-8508000D02*
X16251000Y-8508000D01*
X16201000Y-8712000D02*
X16201000Y-8812000D01*
X16151000Y-8762000D02*
X16251000Y-8762000D01*
X16201000Y-8966000D02*
X16201000Y-9066000D01*
X16151000Y-9016000D02*
X16251000Y-9016000D01*
X16201000Y-9220000D02*
X16201000Y-9320000D01*
X16151000Y-9270000D02*
X16251000Y-9270000D01*
X17480000Y-11097000D02*
X17480000Y-11197000D01*
X17430000Y-11147000D02*
X17530000Y-11147000D01*
X17480000Y-11351000D02*
X17480000Y-11451000D01*
X17430000Y-11401000D02*
X17530000Y-11401000D01*
X17480000Y-11605000D02*
X17480000Y-11705000D01*
X17430000Y-11655000D02*
X17530000Y-11655000D01*
X17480000Y-11859000D02*
X17480000Y-11959000D01*
X17430000Y-11909000D02*
X17530000Y-11909000D01*
D12*
X10180921Y-6381921D02*
X10180921Y-6310079D01*
X10109079Y-6310079D01*
X10109079Y-6381921D01*
X10180921Y-6381921D01*
X10180921Y-6635921D02*
X10180921Y-6564079D01*
X10109079Y-6564079D01*
X10109079Y-6635921D01*
X10180921Y-6635921D01*
X10180921Y-6889921D02*
X10180921Y-6818079D01*
X10109079Y-6818079D01*
X10109079Y-6889921D01*
X10180921Y-6889921D01*
X10180921Y-7143921D02*
X10180921Y-7072079D01*
X10109079Y-7072079D01*
X10109079Y-7143921D01*
X10180921Y-7143921D01*
X10180921Y-7397921D02*
X10180921Y-7326079D01*
X10109079Y-7326079D01*
X10109079Y-7397921D01*
X10180921Y-7397921D01*
X10180921Y-7651921D02*
X10180921Y-7580079D01*
X10109079Y-7580079D01*
X10109079Y-7651921D01*
X10180921Y-7651921D01*
X11196921Y-6381921D02*
X11196921Y-6310079D01*
X11125079Y-6310079D01*
X11125079Y-6381921D01*
X11196921Y-6381921D01*
X11196921Y-6635921D02*
X11196921Y-6564079D01*
X11125079Y-6564079D01*
X11125079Y-6635921D01*
X11196921Y-6635921D01*
X11196921Y-6889921D02*
X11196921Y-6818079D01*
X11125079Y-6818079D01*
X11125079Y-6889921D01*
X11196921Y-6889921D01*
X11196921Y-7143921D02*
X11196921Y-7072079D01*
X11125079Y-7072079D01*
X11125079Y-7143921D01*
X11196921Y-7143921D01*
X11196921Y-7397921D02*
X11196921Y-7326079D01*
X11125079Y-7326079D01*
X11125079Y-7397921D01*
X11196921Y-7397921D01*
X11196921Y-7651921D02*
X11196921Y-7580079D01*
X11125079Y-7580079D01*
X11125079Y-7651921D01*
X11196921Y-7651921D01*
D13*
X10354750Y-3346000D02*
X10479750Y-3221000D01*
X10354750Y-3096000D01*
X10229750Y-3221000D01*
X10354750Y-3346000D01*
X12386750Y-3346000D02*
X12511750Y-3221000D01*
X12386750Y-3096000D01*
X12261750Y-3221000D01*
X12386750Y-3346000D01*
D14*
X10236000Y-8749000D02*
X10556000Y-9069000D01*
X10556000Y-8749000D02*
X10236000Y-9069000D01*
X10556000Y-8909000D02*
G75*
G02*
X10236000Y-8909000I-160000J0D01*
G01*
X10236000Y-8909000D02*
G75*
G02*
X10556000Y-8909000I160000J0D01*
G01*
X16577000Y-3471000D02*
X16897000Y-3791000D01*
X16897000Y-3471000D02*
X16577000Y-3791000D01*
X16897000Y-3631000D02*
G75*
G02*
X16577000Y-3631000I-160000J0D01*
G01*
X16577000Y-3631000D02*
G75*
G02*
X16897000Y-3631000I160000J0D01*
G01*
X16580000Y-7575000D02*
X16900000Y-7895000D01*
X16900000Y-7575000D02*
X16580000Y-7895000D01*
X16900000Y-7735000D02*
G75*
G02*
X16580000Y-7735000I-160000J0D01*
G01*
X16580000Y-7735000D02*
G75*
G02*
X16900000Y-7735000I160000J0D01*
G01*
D10*
X9820777Y-13951484D02*
X9820777Y-13751484D01*
X9820777Y-13751484D02*
X9868396Y-13751484D01*
X9868396Y-13751484D02*
X9896967Y-13761008D01*
X9896967Y-13761008D02*
X9916015Y-13780055D01*
X9916015Y-13780055D02*
X9925539Y-13799103D01*
X9925539Y-13799103D02*
X9935063Y-13837198D01*
X9935063Y-13837198D02*
X9935063Y-13865769D01*
X9935063Y-13865769D02*
X9925539Y-13903865D01*
X9925539Y-13903865D02*
X9916015Y-13922912D01*
X9916015Y-13922912D02*
X9896967Y-13941960D01*
X9896967Y-13941960D02*
X9868396Y-13951484D01*
X9868396Y-13951484D02*
X9820777Y-13951484D01*
X10020777Y-13951484D02*
X10020777Y-13818150D01*
X10020777Y-13856246D02*
X10030301Y-13837198D01*
X10030301Y-13837198D02*
X10039824Y-13827674D01*
X10039824Y-13827674D02*
X10058872Y-13818150D01*
X10058872Y-13818150D02*
X10077920Y-13818150D01*
X10144586Y-13951484D02*
X10144586Y-13818150D01*
X10144586Y-13751484D02*
X10135063Y-13761008D01*
X10135063Y-13761008D02*
X10144586Y-13770531D01*
X10144586Y-13770531D02*
X10154110Y-13761008D01*
X10154110Y-13761008D02*
X10144586Y-13751484D01*
X10144586Y-13751484D02*
X10144586Y-13770531D01*
X10268396Y-13951484D02*
X10249348Y-13941960D01*
X10249348Y-13941960D02*
X10239824Y-13922912D01*
X10239824Y-13922912D02*
X10239824Y-13751484D01*
X10373158Y-13951484D02*
X10354110Y-13941960D01*
X10354110Y-13941960D02*
X10344586Y-13922912D01*
X10344586Y-13922912D02*
X10344586Y-13751484D01*
X10601729Y-13951484D02*
X10601729Y-13751484D01*
X10601729Y-13751484D02*
X10668396Y-13894341D01*
X10668396Y-13894341D02*
X10735063Y-13751484D01*
X10735063Y-13751484D02*
X10735063Y-13951484D01*
X10916015Y-13951484D02*
X10916015Y-13846722D01*
X10916015Y-13846722D02*
X10906491Y-13827674D01*
X10906491Y-13827674D02*
X10887444Y-13818150D01*
X10887444Y-13818150D02*
X10849348Y-13818150D01*
X10849348Y-13818150D02*
X10830301Y-13827674D01*
X10916015Y-13941960D02*
X10896967Y-13951484D01*
X10896967Y-13951484D02*
X10849348Y-13951484D01*
X10849348Y-13951484D02*
X10830301Y-13941960D01*
X10830301Y-13941960D02*
X10820777Y-13922912D01*
X10820777Y-13922912D02*
X10820777Y-13903865D01*
X10820777Y-13903865D02*
X10830301Y-13884817D01*
X10830301Y-13884817D02*
X10849348Y-13875293D01*
X10849348Y-13875293D02*
X10896967Y-13875293D01*
X10896967Y-13875293D02*
X10916015Y-13865769D01*
X11011253Y-13818150D02*
X11011253Y-14018150D01*
X11011253Y-13827674D02*
X11030301Y-13818150D01*
X11030301Y-13818150D02*
X11068396Y-13818150D01*
X11068396Y-13818150D02*
X11087444Y-13827674D01*
X11087444Y-13827674D02*
X11096967Y-13837198D01*
X11096967Y-13837198D02*
X11106491Y-13856246D01*
X11106491Y-13856246D02*
X11106491Y-13913388D01*
X11106491Y-13913388D02*
X11096967Y-13932436D01*
X11096967Y-13932436D02*
X11087444Y-13941960D01*
X11087444Y-13941960D02*
X11068396Y-13951484D01*
X11068396Y-13951484D02*
X11030301Y-13951484D01*
X11030301Y-13951484D02*
X11011253Y-13941960D01*
X11192205Y-13932436D02*
X11201729Y-13941960D01*
X11201729Y-13941960D02*
X11192205Y-13951484D01*
X11192205Y-13951484D02*
X11182682Y-13941960D01*
X11182682Y-13941960D02*
X11192205Y-13932436D01*
X11192205Y-13932436D02*
X11192205Y-13951484D01*
X11192205Y-13827674D02*
X11201729Y-13837198D01*
X11201729Y-13837198D02*
X11192205Y-13846722D01*
X11192205Y-13846722D02*
X11182682Y-13837198D01*
X11182682Y-13837198D02*
X11192205Y-13827674D01*
X11192205Y-13827674D02*
X11192205Y-13846722D01*
D11*
X9530000Y-14265000D02*
X9560000Y-14295000D01*
X9560000Y-14265000D02*
X9530000Y-14295000D01*
D10*
X9858872Y-14171484D02*
X9877920Y-14171484D01*
X9877920Y-14171484D02*
X9896967Y-14181008D01*
X9896967Y-14181008D02*
X9906491Y-14190531D01*
X9906491Y-14190531D02*
X9916015Y-14209579D01*
X9916015Y-14209579D02*
X9925539Y-14247674D01*
X9925539Y-14247674D02*
X9925539Y-14295293D01*
X9925539Y-14295293D02*
X9916015Y-14333388D01*
X9916015Y-14333388D02*
X9906491Y-14352436D01*
X9906491Y-14352436D02*
X9896967Y-14361960D01*
X9896967Y-14361960D02*
X9877920Y-14371484D01*
X9877920Y-14371484D02*
X9858872Y-14371484D01*
X9858872Y-14371484D02*
X9839824Y-14361960D01*
X9839824Y-14361960D02*
X9830301Y-14352436D01*
X9830301Y-14352436D02*
X9820777Y-14333388D01*
X9820777Y-14333388D02*
X9811253Y-14295293D01*
X9811253Y-14295293D02*
X9811253Y-14247674D01*
X9811253Y-14247674D02*
X9820777Y-14209579D01*
X9820777Y-14209579D02*
X9830301Y-14190531D01*
X9830301Y-14190531D02*
X9839824Y-14181008D01*
X9839824Y-14181008D02*
X9858872Y-14171484D01*
X10011253Y-14352436D02*
X10020777Y-14361960D01*
X10020777Y-14361960D02*
X10011253Y-14371484D01*
X10011253Y-14371484D02*
X10001729Y-14361960D01*
X10001729Y-14361960D02*
X10011253Y-14352436D01*
X10011253Y-14352436D02*
X10011253Y-14371484D01*
X10087444Y-14171484D02*
X10211253Y-14171484D01*
X10211253Y-14171484D02*
X10144586Y-14247674D01*
X10144586Y-14247674D02*
X10173158Y-14247674D01*
X10173158Y-14247674D02*
X10192205Y-14257198D01*
X10192205Y-14257198D02*
X10201729Y-14266722D01*
X10201729Y-14266722D02*
X10211253Y-14285769D01*
X10211253Y-14285769D02*
X10211253Y-14333388D01*
X10211253Y-14333388D02*
X10201729Y-14352436D01*
X10201729Y-14352436D02*
X10192205Y-14361960D01*
X10192205Y-14361960D02*
X10173158Y-14371484D01*
X10173158Y-14371484D02*
X10116015Y-14371484D01*
X10116015Y-14371484D02*
X10096967Y-14361960D01*
X10096967Y-14361960D02*
X10087444Y-14352436D01*
X10335063Y-14171484D02*
X10354110Y-14171484D01*
X10354110Y-14171484D02*
X10373158Y-14181008D01*
X10373158Y-14181008D02*
X10382682Y-14190531D01*
X10382682Y-14190531D02*
X10392205Y-14209579D01*
X10392205Y-14209579D02*
X10401729Y-14247674D01*
X10401729Y-14247674D02*
X10401729Y-14295293D01*
X10401729Y-14295293D02*
X10392205Y-14333388D01*
X10392205Y-14333388D02*
X10382682Y-14352436D01*
X10382682Y-14352436D02*
X10373158Y-14361960D01*
X10373158Y-14361960D02*
X10354110Y-14371484D01*
X10354110Y-14371484D02*
X10335063Y-14371484D01*
X10335063Y-14371484D02*
X10316015Y-14361960D01*
X10316015Y-14361960D02*
X10306491Y-14352436D01*
X10306491Y-14352436D02*
X10296967Y-14333388D01*
X10296967Y-14333388D02*
X10287444Y-14295293D01*
X10287444Y-14295293D02*
X10287444Y-14247674D01*
X10287444Y-14247674D02*
X10296967Y-14209579D01*
X10296967Y-14209579D02*
X10306491Y-14190531D01*
X10306491Y-14190531D02*
X10316015Y-14181008D01*
X10316015Y-14181008D02*
X10335063Y-14171484D01*
X10525539Y-14171484D02*
X10544586Y-14171484D01*
X10544586Y-14171484D02*
X10563634Y-14181008D01*
X10563634Y-14181008D02*
X10573158Y-14190531D01*
X10573158Y-14190531D02*
X10582682Y-14209579D01*
X10582682Y-14209579D02*
X10592205Y-14247674D01*
X10592205Y-14247674D02*
X10592205Y-14295293D01*
X10592205Y-14295293D02*
X10582682Y-14333388D01*
X10582682Y-14333388D02*
X10573158Y-14352436D01*
X10573158Y-14352436D02*
X10563634Y-14361960D01*
X10563634Y-14361960D02*
X10544586Y-14371484D01*
X10544586Y-14371484D02*
X10525539Y-14371484D01*
X10525539Y-14371484D02*
X10506491Y-14361960D01*
X10506491Y-14361960D02*
X10496967Y-14352436D01*
X10496967Y-14352436D02*
X10487444Y-14333388D01*
X10487444Y-14333388D02*
X10477920Y-14295293D01*
X10477920Y-14295293D02*
X10477920Y-14247674D01*
X10477920Y-14247674D02*
X10487444Y-14209579D01*
X10487444Y-14209579D02*
X10496967Y-14190531D01*
X10496967Y-14190531D02*
X10506491Y-14181008D01*
X10506491Y-14181008D02*
X10525539Y-14171484D01*
X10677920Y-14371484D02*
X10677920Y-14238150D01*
X10677920Y-14257198D02*
X10687444Y-14247674D01*
X10687444Y-14247674D02*
X10706491Y-14238150D01*
X10706491Y-14238150D02*
X10735063Y-14238150D01*
X10735063Y-14238150D02*
X10754110Y-14247674D01*
X10754110Y-14247674D02*
X10763634Y-14266722D01*
X10763634Y-14266722D02*
X10763634Y-14371484D01*
X10763634Y-14266722D02*
X10773158Y-14247674D01*
X10773158Y-14247674D02*
X10792205Y-14238150D01*
X10792205Y-14238150D02*
X10820777Y-14238150D01*
X10820777Y-14238150D02*
X10839825Y-14247674D01*
X10839825Y-14247674D02*
X10849348Y-14266722D01*
X10849348Y-14266722D02*
X10849348Y-14371484D01*
X10944586Y-14371484D02*
X10944586Y-14238150D01*
X10944586Y-14257198D02*
X10954110Y-14247674D01*
X10954110Y-14247674D02*
X10973158Y-14238150D01*
X10973158Y-14238150D02*
X11001729Y-14238150D01*
X11001729Y-14238150D02*
X11020777Y-14247674D01*
X11020777Y-14247674D02*
X11030301Y-14266722D01*
X11030301Y-14266722D02*
X11030301Y-14371484D01*
X11030301Y-14266722D02*
X11039825Y-14247674D01*
X11039825Y-14247674D02*
X11058872Y-14238150D01*
X11058872Y-14238150D02*
X11087444Y-14238150D01*
X11087444Y-14238150D02*
X11106491Y-14247674D01*
X11106491Y-14247674D02*
X11116015Y-14266722D01*
X11116015Y-14266722D02*
X11116015Y-14371484D01*
X11506491Y-14161960D02*
X11335063Y-14419103D01*
X11763634Y-14171484D02*
X11782682Y-14171484D01*
X11782682Y-14171484D02*
X11801729Y-14181008D01*
X11801729Y-14181008D02*
X11811253Y-14190531D01*
X11811253Y-14190531D02*
X11820777Y-14209579D01*
X11820777Y-14209579D02*
X11830301Y-14247674D01*
X11830301Y-14247674D02*
X11830301Y-14295293D01*
X11830301Y-14295293D02*
X11820777Y-14333388D01*
X11820777Y-14333388D02*
X11811253Y-14352436D01*
X11811253Y-14352436D02*
X11801729Y-14361960D01*
X11801729Y-14361960D02*
X11782682Y-14371484D01*
X11782682Y-14371484D02*
X11763634Y-14371484D01*
X11763634Y-14371484D02*
X11744586Y-14361960D01*
X11744586Y-14361960D02*
X11735063Y-14352436D01*
X11735063Y-14352436D02*
X11725539Y-14333388D01*
X11725539Y-14333388D02*
X11716015Y-14295293D01*
X11716015Y-14295293D02*
X11716015Y-14247674D01*
X11716015Y-14247674D02*
X11725539Y-14209579D01*
X11725539Y-14209579D02*
X11735063Y-14190531D01*
X11735063Y-14190531D02*
X11744586Y-14181008D01*
X11744586Y-14181008D02*
X11763634Y-14171484D01*
X11916015Y-14352436D02*
X11925539Y-14361960D01*
X11925539Y-14361960D02*
X11916015Y-14371484D01*
X11916015Y-14371484D02*
X11906491Y-14361960D01*
X11906491Y-14361960D02*
X11916015Y-14352436D01*
X11916015Y-14352436D02*
X11916015Y-14371484D01*
X12049348Y-14171484D02*
X12068396Y-14171484D01*
X12068396Y-14171484D02*
X12087444Y-14181008D01*
X12087444Y-14181008D02*
X12096967Y-14190531D01*
X12096967Y-14190531D02*
X12106491Y-14209579D01*
X12106491Y-14209579D02*
X12116015Y-14247674D01*
X12116015Y-14247674D02*
X12116015Y-14295293D01*
X12116015Y-14295293D02*
X12106491Y-14333388D01*
X12106491Y-14333388D02*
X12096967Y-14352436D01*
X12096967Y-14352436D02*
X12087444Y-14361960D01*
X12087444Y-14361960D02*
X12068396Y-14371484D01*
X12068396Y-14371484D02*
X12049348Y-14371484D01*
X12049348Y-14371484D02*
X12030301Y-14361960D01*
X12030301Y-14361960D02*
X12020777Y-14352436D01*
X12020777Y-14352436D02*
X12011253Y-14333388D01*
X12011253Y-14333388D02*
X12001729Y-14295293D01*
X12001729Y-14295293D02*
X12001729Y-14247674D01*
X12001729Y-14247674D02*
X12011253Y-14209579D01*
X12011253Y-14209579D02*
X12020777Y-14190531D01*
X12020777Y-14190531D02*
X12030301Y-14181008D01*
X12030301Y-14181008D02*
X12049348Y-14171484D01*
X12306491Y-14371484D02*
X12192206Y-14371484D01*
X12249348Y-14371484D02*
X12249348Y-14171484D01*
X12249348Y-14171484D02*
X12230301Y-14200055D01*
X12230301Y-14200055D02*
X12211253Y-14219103D01*
X12211253Y-14219103D02*
X12192206Y-14228627D01*
X12496967Y-14371484D02*
X12382682Y-14371484D01*
X12439825Y-14371484D02*
X12439825Y-14171484D01*
X12439825Y-14171484D02*
X12420777Y-14200055D01*
X12420777Y-14200055D02*
X12401729Y-14219103D01*
X12401729Y-14219103D02*
X12382682Y-14228627D01*
X12611253Y-14257198D02*
X12592206Y-14247674D01*
X12592206Y-14247674D02*
X12582682Y-14238150D01*
X12582682Y-14238150D02*
X12573158Y-14219103D01*
X12573158Y-14219103D02*
X12573158Y-14209579D01*
X12573158Y-14209579D02*
X12582682Y-14190531D01*
X12582682Y-14190531D02*
X12592206Y-14181008D01*
X12592206Y-14181008D02*
X12611253Y-14171484D01*
X12611253Y-14171484D02*
X12649348Y-14171484D01*
X12649348Y-14171484D02*
X12668396Y-14181008D01*
X12668396Y-14181008D02*
X12677920Y-14190531D01*
X12677920Y-14190531D02*
X12687444Y-14209579D01*
X12687444Y-14209579D02*
X12687444Y-14219103D01*
X12687444Y-14219103D02*
X12677920Y-14238150D01*
X12677920Y-14238150D02*
X12668396Y-14247674D01*
X12668396Y-14247674D02*
X12649348Y-14257198D01*
X12649348Y-14257198D02*
X12611253Y-14257198D01*
X12611253Y-14257198D02*
X12592206Y-14266722D01*
X12592206Y-14266722D02*
X12582682Y-14276246D01*
X12582682Y-14276246D02*
X12573158Y-14295293D01*
X12573158Y-14295293D02*
X12573158Y-14333388D01*
X12573158Y-14333388D02*
X12582682Y-14352436D01*
X12582682Y-14352436D02*
X12592206Y-14361960D01*
X12592206Y-14361960D02*
X12611253Y-14371484D01*
X12611253Y-14371484D02*
X12649348Y-14371484D01*
X12649348Y-14371484D02*
X12668396Y-14361960D01*
X12668396Y-14361960D02*
X12677920Y-14352436D01*
X12677920Y-14352436D02*
X12687444Y-14333388D01*
X12687444Y-14333388D02*
X12687444Y-14295293D01*
X12687444Y-14295293D02*
X12677920Y-14276246D01*
X12677920Y-14276246D02*
X12668396Y-14266722D01*
X12668396Y-14266722D02*
X12649348Y-14257198D01*
X12763634Y-14171484D02*
X12763634Y-14209579D01*
X12839825Y-14171484D02*
X12839825Y-14209579D01*
X13135063Y-14447674D02*
X13125539Y-14438150D01*
X13125539Y-14438150D02*
X13106491Y-14409579D01*
X13106491Y-14409579D02*
X13096968Y-14390531D01*
X13096968Y-14390531D02*
X13087444Y-14361960D01*
X13087444Y-14361960D02*
X13077920Y-14314341D01*
X13077920Y-14314341D02*
X13077920Y-14276246D01*
X13077920Y-14276246D02*
X13087444Y-14228627D01*
X13087444Y-14228627D02*
X13096968Y-14200055D01*
X13096968Y-14200055D02*
X13106491Y-14181008D01*
X13106491Y-14181008D02*
X13125539Y-14152436D01*
X13125539Y-14152436D02*
X13135063Y-14142912D01*
X13316015Y-14371484D02*
X13201729Y-14371484D01*
X13258872Y-14371484D02*
X13258872Y-14171484D01*
X13258872Y-14171484D02*
X13239825Y-14200055D01*
X13239825Y-14200055D02*
X13220777Y-14219103D01*
X13220777Y-14219103D02*
X13201729Y-14228627D01*
X13382682Y-14171484D02*
X13506491Y-14171484D01*
X13506491Y-14171484D02*
X13439825Y-14247674D01*
X13439825Y-14247674D02*
X13468396Y-14247674D01*
X13468396Y-14247674D02*
X13487444Y-14257198D01*
X13487444Y-14257198D02*
X13496968Y-14266722D01*
X13496968Y-14266722D02*
X13506491Y-14285769D01*
X13506491Y-14285769D02*
X13506491Y-14333388D01*
X13506491Y-14333388D02*
X13496968Y-14352436D01*
X13496968Y-14352436D02*
X13487444Y-14361960D01*
X13487444Y-14361960D02*
X13468396Y-14371484D01*
X13468396Y-14371484D02*
X13411253Y-14371484D01*
X13411253Y-14371484D02*
X13392206Y-14361960D01*
X13392206Y-14361960D02*
X13382682Y-14352436D01*
X13744587Y-14371484D02*
X13744587Y-14171484D01*
X13830301Y-14371484D02*
X13830301Y-14266722D01*
X13830301Y-14266722D02*
X13820777Y-14247674D01*
X13820777Y-14247674D02*
X13801730Y-14238150D01*
X13801730Y-14238150D02*
X13773158Y-14238150D01*
X13773158Y-14238150D02*
X13754110Y-14247674D01*
X13754110Y-14247674D02*
X13744587Y-14257198D01*
X13954110Y-14371484D02*
X13935063Y-14361960D01*
X13935063Y-14361960D02*
X13925539Y-14352436D01*
X13925539Y-14352436D02*
X13916015Y-14333388D01*
X13916015Y-14333388D02*
X13916015Y-14276246D01*
X13916015Y-14276246D02*
X13925539Y-14257198D01*
X13925539Y-14257198D02*
X13935063Y-14247674D01*
X13935063Y-14247674D02*
X13954110Y-14238150D01*
X13954110Y-14238150D02*
X13982682Y-14238150D01*
X13982682Y-14238150D02*
X14001730Y-14247674D01*
X14001730Y-14247674D02*
X14011253Y-14257198D01*
X14011253Y-14257198D02*
X14020777Y-14276246D01*
X14020777Y-14276246D02*
X14020777Y-14333388D01*
X14020777Y-14333388D02*
X14011253Y-14352436D01*
X14011253Y-14352436D02*
X14001730Y-14361960D01*
X14001730Y-14361960D02*
X13982682Y-14371484D01*
X13982682Y-14371484D02*
X13954110Y-14371484D01*
X14135063Y-14371484D02*
X14116015Y-14361960D01*
X14116015Y-14361960D02*
X14106491Y-14342912D01*
X14106491Y-14342912D02*
X14106491Y-14171484D01*
X14287444Y-14361960D02*
X14268396Y-14371484D01*
X14268396Y-14371484D02*
X14230301Y-14371484D01*
X14230301Y-14371484D02*
X14211253Y-14361960D01*
X14211253Y-14361960D02*
X14201730Y-14342912D01*
X14201730Y-14342912D02*
X14201730Y-14266722D01*
X14201730Y-14266722D02*
X14211253Y-14247674D01*
X14211253Y-14247674D02*
X14230301Y-14238150D01*
X14230301Y-14238150D02*
X14268396Y-14238150D01*
X14268396Y-14238150D02*
X14287444Y-14247674D01*
X14287444Y-14247674D02*
X14296968Y-14266722D01*
X14296968Y-14266722D02*
X14296968Y-14285769D01*
X14296968Y-14285769D02*
X14201730Y-14304817D01*
X14373158Y-14361960D02*
X14392206Y-14371484D01*
X14392206Y-14371484D02*
X14430301Y-14371484D01*
X14430301Y-14371484D02*
X14449349Y-14361960D01*
X14449349Y-14361960D02*
X14458872Y-14342912D01*
X14458872Y-14342912D02*
X14458872Y-14333388D01*
X14458872Y-14333388D02*
X14449349Y-14314341D01*
X14449349Y-14314341D02*
X14430301Y-14304817D01*
X14430301Y-14304817D02*
X14401730Y-14304817D01*
X14401730Y-14304817D02*
X14382682Y-14295293D01*
X14382682Y-14295293D02*
X14373158Y-14276246D01*
X14373158Y-14276246D02*
X14373158Y-14266722D01*
X14373158Y-14266722D02*
X14382682Y-14247674D01*
X14382682Y-14247674D02*
X14401730Y-14238150D01*
X14401730Y-14238150D02*
X14430301Y-14238150D01*
X14430301Y-14238150D02*
X14449349Y-14247674D01*
X14525539Y-14447674D02*
X14535063Y-14438150D01*
X14535063Y-14438150D02*
X14554111Y-14409579D01*
X14554111Y-14409579D02*
X14563634Y-14390531D01*
X14563634Y-14390531D02*
X14573158Y-14361960D01*
X14573158Y-14361960D02*
X14582682Y-14314341D01*
X14582682Y-14314341D02*
X14582682Y-14276246D01*
X14582682Y-14276246D02*
X14573158Y-14228627D01*
X14573158Y-14228627D02*
X14563634Y-14200055D01*
X14563634Y-14200055D02*
X14554111Y-14181008D01*
X14554111Y-14181008D02*
X14535063Y-14152436D01*
X14535063Y-14152436D02*
X14525539Y-14142912D01*
D11*
X9560000Y-14544000D02*
G75*
G02*
X9471100Y-14544000I-44450J0D01*
G01*
X9471100Y-14544000D02*
G75*
G02*
X9560000Y-14544000I44450J0D01*
G01*
D10*
X9858872Y-14435484D02*
X9877920Y-14435484D01*
X9877920Y-14435484D02*
X9896967Y-14445008D01*
X9896967Y-14445008D02*
X9906491Y-14454531D01*
X9906491Y-14454531D02*
X9916015Y-14473579D01*
X9916015Y-14473579D02*
X9925539Y-14511674D01*
X9925539Y-14511674D02*
X9925539Y-14559293D01*
X9925539Y-14559293D02*
X9916015Y-14597388D01*
X9916015Y-14597388D02*
X9906491Y-14616436D01*
X9906491Y-14616436D02*
X9896967Y-14625960D01*
X9896967Y-14625960D02*
X9877920Y-14635484D01*
X9877920Y-14635484D02*
X9858872Y-14635484D01*
X9858872Y-14635484D02*
X9839824Y-14625960D01*
X9839824Y-14625960D02*
X9830301Y-14616436D01*
X9830301Y-14616436D02*
X9820777Y-14597388D01*
X9820777Y-14597388D02*
X9811253Y-14559293D01*
X9811253Y-14559293D02*
X9811253Y-14511674D01*
X9811253Y-14511674D02*
X9820777Y-14473579D01*
X9820777Y-14473579D02*
X9830301Y-14454531D01*
X9830301Y-14454531D02*
X9839824Y-14445008D01*
X9839824Y-14445008D02*
X9858872Y-14435484D01*
X10011253Y-14616436D02*
X10020777Y-14625960D01*
X10020777Y-14625960D02*
X10011253Y-14635484D01*
X10011253Y-14635484D02*
X10001729Y-14625960D01*
X10001729Y-14625960D02*
X10011253Y-14616436D01*
X10011253Y-14616436D02*
X10011253Y-14635484D01*
X10135063Y-14521198D02*
X10116015Y-14511674D01*
X10116015Y-14511674D02*
X10106491Y-14502150D01*
X10106491Y-14502150D02*
X10096967Y-14483103D01*
X10096967Y-14483103D02*
X10096967Y-14473579D01*
X10096967Y-14473579D02*
X10106491Y-14454531D01*
X10106491Y-14454531D02*
X10116015Y-14445008D01*
X10116015Y-14445008D02*
X10135063Y-14435484D01*
X10135063Y-14435484D02*
X10173158Y-14435484D01*
X10173158Y-14435484D02*
X10192205Y-14445008D01*
X10192205Y-14445008D02*
X10201729Y-14454531D01*
X10201729Y-14454531D02*
X10211253Y-14473579D01*
X10211253Y-14473579D02*
X10211253Y-14483103D01*
X10211253Y-14483103D02*
X10201729Y-14502150D01*
X10201729Y-14502150D02*
X10192205Y-14511674D01*
X10192205Y-14511674D02*
X10173158Y-14521198D01*
X10173158Y-14521198D02*
X10135063Y-14521198D01*
X10135063Y-14521198D02*
X10116015Y-14530722D01*
X10116015Y-14530722D02*
X10106491Y-14540246D01*
X10106491Y-14540246D02*
X10096967Y-14559293D01*
X10096967Y-14559293D02*
X10096967Y-14597388D01*
X10096967Y-14597388D02*
X10106491Y-14616436D01*
X10106491Y-14616436D02*
X10116015Y-14625960D01*
X10116015Y-14625960D02*
X10135063Y-14635484D01*
X10135063Y-14635484D02*
X10173158Y-14635484D01*
X10173158Y-14635484D02*
X10192205Y-14625960D01*
X10192205Y-14625960D02*
X10201729Y-14616436D01*
X10201729Y-14616436D02*
X10211253Y-14597388D01*
X10211253Y-14597388D02*
X10211253Y-14559293D01*
X10211253Y-14559293D02*
X10201729Y-14540246D01*
X10201729Y-14540246D02*
X10192205Y-14530722D01*
X10192205Y-14530722D02*
X10173158Y-14521198D01*
X10325539Y-14521198D02*
X10306491Y-14511674D01*
X10306491Y-14511674D02*
X10296967Y-14502150D01*
X10296967Y-14502150D02*
X10287444Y-14483103D01*
X10287444Y-14483103D02*
X10287444Y-14473579D01*
X10287444Y-14473579D02*
X10296967Y-14454531D01*
X10296967Y-14454531D02*
X10306491Y-14445008D01*
X10306491Y-14445008D02*
X10325539Y-14435484D01*
X10325539Y-14435484D02*
X10363634Y-14435484D01*
X10363634Y-14435484D02*
X10382682Y-14445008D01*
X10382682Y-14445008D02*
X10392205Y-14454531D01*
X10392205Y-14454531D02*
X10401729Y-14473579D01*
X10401729Y-14473579D02*
X10401729Y-14483103D01*
X10401729Y-14483103D02*
X10392205Y-14502150D01*
X10392205Y-14502150D02*
X10382682Y-14511674D01*
X10382682Y-14511674D02*
X10363634Y-14521198D01*
X10363634Y-14521198D02*
X10325539Y-14521198D01*
X10325539Y-14521198D02*
X10306491Y-14530722D01*
X10306491Y-14530722D02*
X10296967Y-14540246D01*
X10296967Y-14540246D02*
X10287444Y-14559293D01*
X10287444Y-14559293D02*
X10287444Y-14597388D01*
X10287444Y-14597388D02*
X10296967Y-14616436D01*
X10296967Y-14616436D02*
X10306491Y-14625960D01*
X10306491Y-14625960D02*
X10325539Y-14635484D01*
X10325539Y-14635484D02*
X10363634Y-14635484D01*
X10363634Y-14635484D02*
X10382682Y-14625960D01*
X10382682Y-14625960D02*
X10392205Y-14616436D01*
X10392205Y-14616436D02*
X10401729Y-14597388D01*
X10401729Y-14597388D02*
X10401729Y-14559293D01*
X10401729Y-14559293D02*
X10392205Y-14540246D01*
X10392205Y-14540246D02*
X10382682Y-14530722D01*
X10382682Y-14530722D02*
X10363634Y-14521198D01*
X10496967Y-14635484D02*
X10535063Y-14635484D01*
X10535063Y-14635484D02*
X10554110Y-14625960D01*
X10554110Y-14625960D02*
X10563634Y-14616436D01*
X10563634Y-14616436D02*
X10582682Y-14587865D01*
X10582682Y-14587865D02*
X10592205Y-14549769D01*
X10592205Y-14549769D02*
X10592205Y-14473579D01*
X10592205Y-14473579D02*
X10582682Y-14454531D01*
X10582682Y-14454531D02*
X10573158Y-14445008D01*
X10573158Y-14445008D02*
X10554110Y-14435484D01*
X10554110Y-14435484D02*
X10516015Y-14435484D01*
X10516015Y-14435484D02*
X10496967Y-14445008D01*
X10496967Y-14445008D02*
X10487444Y-14454531D01*
X10487444Y-14454531D02*
X10477920Y-14473579D01*
X10477920Y-14473579D02*
X10477920Y-14521198D01*
X10477920Y-14521198D02*
X10487444Y-14540246D01*
X10487444Y-14540246D02*
X10496967Y-14549769D01*
X10496967Y-14549769D02*
X10516015Y-14559293D01*
X10516015Y-14559293D02*
X10554110Y-14559293D01*
X10554110Y-14559293D02*
X10573158Y-14549769D01*
X10573158Y-14549769D02*
X10582682Y-14540246D01*
X10582682Y-14540246D02*
X10592205Y-14521198D01*
X10677920Y-14635484D02*
X10677920Y-14502150D01*
X10677920Y-14521198D02*
X10687444Y-14511674D01*
X10687444Y-14511674D02*
X10706491Y-14502150D01*
X10706491Y-14502150D02*
X10735063Y-14502150D01*
X10735063Y-14502150D02*
X10754110Y-14511674D01*
X10754110Y-14511674D02*
X10763634Y-14530722D01*
X10763634Y-14530722D02*
X10763634Y-14635484D01*
X10763634Y-14530722D02*
X10773158Y-14511674D01*
X10773158Y-14511674D02*
X10792205Y-14502150D01*
X10792205Y-14502150D02*
X10820777Y-14502150D01*
X10820777Y-14502150D02*
X10839825Y-14511674D01*
X10839825Y-14511674D02*
X10849348Y-14530722D01*
X10849348Y-14530722D02*
X10849348Y-14635484D01*
X10944586Y-14635484D02*
X10944586Y-14502150D01*
X10944586Y-14521198D02*
X10954110Y-14511674D01*
X10954110Y-14511674D02*
X10973158Y-14502150D01*
X10973158Y-14502150D02*
X11001729Y-14502150D01*
X11001729Y-14502150D02*
X11020777Y-14511674D01*
X11020777Y-14511674D02*
X11030301Y-14530722D01*
X11030301Y-14530722D02*
X11030301Y-14635484D01*
X11030301Y-14530722D02*
X11039825Y-14511674D01*
X11039825Y-14511674D02*
X11058872Y-14502150D01*
X11058872Y-14502150D02*
X11087444Y-14502150D01*
X11087444Y-14502150D02*
X11106491Y-14511674D01*
X11106491Y-14511674D02*
X11116015Y-14530722D01*
X11116015Y-14530722D02*
X11116015Y-14635484D01*
X11506491Y-14425960D02*
X11335063Y-14683103D01*
X11763634Y-14435484D02*
X11782682Y-14435484D01*
X11782682Y-14435484D02*
X11801729Y-14445008D01*
X11801729Y-14445008D02*
X11811253Y-14454531D01*
X11811253Y-14454531D02*
X11820777Y-14473579D01*
X11820777Y-14473579D02*
X11830301Y-14511674D01*
X11830301Y-14511674D02*
X11830301Y-14559293D01*
X11830301Y-14559293D02*
X11820777Y-14597388D01*
X11820777Y-14597388D02*
X11811253Y-14616436D01*
X11811253Y-14616436D02*
X11801729Y-14625960D01*
X11801729Y-14625960D02*
X11782682Y-14635484D01*
X11782682Y-14635484D02*
X11763634Y-14635484D01*
X11763634Y-14635484D02*
X11744586Y-14625960D01*
X11744586Y-14625960D02*
X11735063Y-14616436D01*
X11735063Y-14616436D02*
X11725539Y-14597388D01*
X11725539Y-14597388D02*
X11716015Y-14559293D01*
X11716015Y-14559293D02*
X11716015Y-14511674D01*
X11716015Y-14511674D02*
X11725539Y-14473579D01*
X11725539Y-14473579D02*
X11735063Y-14454531D01*
X11735063Y-14454531D02*
X11744586Y-14445008D01*
X11744586Y-14445008D02*
X11763634Y-14435484D01*
X11916015Y-14616436D02*
X11925539Y-14625960D01*
X11925539Y-14625960D02*
X11916015Y-14635484D01*
X11916015Y-14635484D02*
X11906491Y-14625960D01*
X11906491Y-14625960D02*
X11916015Y-14616436D01*
X11916015Y-14616436D02*
X11916015Y-14635484D01*
X12049348Y-14435484D02*
X12068396Y-14435484D01*
X12068396Y-14435484D02*
X12087444Y-14445008D01*
X12087444Y-14445008D02*
X12096967Y-14454531D01*
X12096967Y-14454531D02*
X12106491Y-14473579D01*
X12106491Y-14473579D02*
X12116015Y-14511674D01*
X12116015Y-14511674D02*
X12116015Y-14559293D01*
X12116015Y-14559293D02*
X12106491Y-14597388D01*
X12106491Y-14597388D02*
X12096967Y-14616436D01*
X12096967Y-14616436D02*
X12087444Y-14625960D01*
X12087444Y-14625960D02*
X12068396Y-14635484D01*
X12068396Y-14635484D02*
X12049348Y-14635484D01*
X12049348Y-14635484D02*
X12030301Y-14625960D01*
X12030301Y-14625960D02*
X12020777Y-14616436D01*
X12020777Y-14616436D02*
X12011253Y-14597388D01*
X12011253Y-14597388D02*
X12001729Y-14559293D01*
X12001729Y-14559293D02*
X12001729Y-14511674D01*
X12001729Y-14511674D02*
X12011253Y-14473579D01*
X12011253Y-14473579D02*
X12020777Y-14454531D01*
X12020777Y-14454531D02*
X12030301Y-14445008D01*
X12030301Y-14445008D02*
X12049348Y-14435484D01*
X12182682Y-14435484D02*
X12306491Y-14435484D01*
X12306491Y-14435484D02*
X12239825Y-14511674D01*
X12239825Y-14511674D02*
X12268396Y-14511674D01*
X12268396Y-14511674D02*
X12287444Y-14521198D01*
X12287444Y-14521198D02*
X12296967Y-14530722D01*
X12296967Y-14530722D02*
X12306491Y-14549769D01*
X12306491Y-14549769D02*
X12306491Y-14597388D01*
X12306491Y-14597388D02*
X12296967Y-14616436D01*
X12296967Y-14616436D02*
X12287444Y-14625960D01*
X12287444Y-14625960D02*
X12268396Y-14635484D01*
X12268396Y-14635484D02*
X12211253Y-14635484D01*
X12211253Y-14635484D02*
X12192206Y-14625960D01*
X12192206Y-14625960D02*
X12182682Y-14616436D01*
X12487444Y-14435484D02*
X12392206Y-14435484D01*
X12392206Y-14435484D02*
X12382682Y-14530722D01*
X12382682Y-14530722D02*
X12392206Y-14521198D01*
X12392206Y-14521198D02*
X12411253Y-14511674D01*
X12411253Y-14511674D02*
X12458872Y-14511674D01*
X12458872Y-14511674D02*
X12477920Y-14521198D01*
X12477920Y-14521198D02*
X12487444Y-14530722D01*
X12487444Y-14530722D02*
X12496967Y-14549769D01*
X12496967Y-14549769D02*
X12496967Y-14597388D01*
X12496967Y-14597388D02*
X12487444Y-14616436D01*
X12487444Y-14616436D02*
X12477920Y-14625960D01*
X12477920Y-14625960D02*
X12458872Y-14635484D01*
X12458872Y-14635484D02*
X12411253Y-14635484D01*
X12411253Y-14635484D02*
X12392206Y-14625960D01*
X12392206Y-14625960D02*
X12382682Y-14616436D01*
X12620777Y-14435484D02*
X12639825Y-14435484D01*
X12639825Y-14435484D02*
X12658872Y-14445008D01*
X12658872Y-14445008D02*
X12668396Y-14454531D01*
X12668396Y-14454531D02*
X12677920Y-14473579D01*
X12677920Y-14473579D02*
X12687444Y-14511674D01*
X12687444Y-14511674D02*
X12687444Y-14559293D01*
X12687444Y-14559293D02*
X12677920Y-14597388D01*
X12677920Y-14597388D02*
X12668396Y-14616436D01*
X12668396Y-14616436D02*
X12658872Y-14625960D01*
X12658872Y-14625960D02*
X12639825Y-14635484D01*
X12639825Y-14635484D02*
X12620777Y-14635484D01*
X12620777Y-14635484D02*
X12601729Y-14625960D01*
X12601729Y-14625960D02*
X12592206Y-14616436D01*
X12592206Y-14616436D02*
X12582682Y-14597388D01*
X12582682Y-14597388D02*
X12573158Y-14559293D01*
X12573158Y-14559293D02*
X12573158Y-14511674D01*
X12573158Y-14511674D02*
X12582682Y-14473579D01*
X12582682Y-14473579D02*
X12592206Y-14454531D01*
X12592206Y-14454531D02*
X12601729Y-14445008D01*
X12601729Y-14445008D02*
X12620777Y-14435484D01*
X12763634Y-14435484D02*
X12763634Y-14473579D01*
X12839825Y-14435484D02*
X12839825Y-14473579D01*
X13135063Y-14711674D02*
X13125539Y-14702150D01*
X13125539Y-14702150D02*
X13106491Y-14673579D01*
X13106491Y-14673579D02*
X13096968Y-14654531D01*
X13096968Y-14654531D02*
X13087444Y-14625960D01*
X13087444Y-14625960D02*
X13077920Y-14578341D01*
X13077920Y-14578341D02*
X13077920Y-14540246D01*
X13077920Y-14540246D02*
X13087444Y-14492627D01*
X13087444Y-14492627D02*
X13096968Y-14464055D01*
X13096968Y-14464055D02*
X13106491Y-14445008D01*
X13106491Y-14445008D02*
X13125539Y-14416436D01*
X13125539Y-14416436D02*
X13135063Y-14406912D01*
X13316015Y-14635484D02*
X13201729Y-14635484D01*
X13258872Y-14635484D02*
X13258872Y-14435484D01*
X13258872Y-14435484D02*
X13239825Y-14464055D01*
X13239825Y-14464055D02*
X13220777Y-14483103D01*
X13220777Y-14483103D02*
X13201729Y-14492627D01*
X13487444Y-14502150D02*
X13487444Y-14635484D01*
X13439825Y-14425960D02*
X13392206Y-14568817D01*
X13392206Y-14568817D02*
X13516015Y-14568817D01*
X13744587Y-14635484D02*
X13744587Y-14435484D01*
X13830301Y-14635484D02*
X13830301Y-14530722D01*
X13830301Y-14530722D02*
X13820777Y-14511674D01*
X13820777Y-14511674D02*
X13801730Y-14502150D01*
X13801730Y-14502150D02*
X13773158Y-14502150D01*
X13773158Y-14502150D02*
X13754110Y-14511674D01*
X13754110Y-14511674D02*
X13744587Y-14521198D01*
X13954110Y-14635484D02*
X13935063Y-14625960D01*
X13935063Y-14625960D02*
X13925539Y-14616436D01*
X13925539Y-14616436D02*
X13916015Y-14597388D01*
X13916015Y-14597388D02*
X13916015Y-14540246D01*
X13916015Y-14540246D02*
X13925539Y-14521198D01*
X13925539Y-14521198D02*
X13935063Y-14511674D01*
X13935063Y-14511674D02*
X13954110Y-14502150D01*
X13954110Y-14502150D02*
X13982682Y-14502150D01*
X13982682Y-14502150D02*
X14001730Y-14511674D01*
X14001730Y-14511674D02*
X14011253Y-14521198D01*
X14011253Y-14521198D02*
X14020777Y-14540246D01*
X14020777Y-14540246D02*
X14020777Y-14597388D01*
X14020777Y-14597388D02*
X14011253Y-14616436D01*
X14011253Y-14616436D02*
X14001730Y-14625960D01*
X14001730Y-14625960D02*
X13982682Y-14635484D01*
X13982682Y-14635484D02*
X13954110Y-14635484D01*
X14135063Y-14635484D02*
X14116015Y-14625960D01*
X14116015Y-14625960D02*
X14106491Y-14606912D01*
X14106491Y-14606912D02*
X14106491Y-14435484D01*
X14287444Y-14625960D02*
X14268396Y-14635484D01*
X14268396Y-14635484D02*
X14230301Y-14635484D01*
X14230301Y-14635484D02*
X14211253Y-14625960D01*
X14211253Y-14625960D02*
X14201730Y-14606912D01*
X14201730Y-14606912D02*
X14201730Y-14530722D01*
X14201730Y-14530722D02*
X14211253Y-14511674D01*
X14211253Y-14511674D02*
X14230301Y-14502150D01*
X14230301Y-14502150D02*
X14268396Y-14502150D01*
X14268396Y-14502150D02*
X14287444Y-14511674D01*
X14287444Y-14511674D02*
X14296968Y-14530722D01*
X14296968Y-14530722D02*
X14296968Y-14549769D01*
X14296968Y-14549769D02*
X14201730Y-14568817D01*
X14373158Y-14625960D02*
X14392206Y-14635484D01*
X14392206Y-14635484D02*
X14430301Y-14635484D01*
X14430301Y-14635484D02*
X14449349Y-14625960D01*
X14449349Y-14625960D02*
X14458872Y-14606912D01*
X14458872Y-14606912D02*
X14458872Y-14597388D01*
X14458872Y-14597388D02*
X14449349Y-14578341D01*
X14449349Y-14578341D02*
X14430301Y-14568817D01*
X14430301Y-14568817D02*
X14401730Y-14568817D01*
X14401730Y-14568817D02*
X14382682Y-14559293D01*
X14382682Y-14559293D02*
X14373158Y-14540246D01*
X14373158Y-14540246D02*
X14373158Y-14530722D01*
X14373158Y-14530722D02*
X14382682Y-14511674D01*
X14382682Y-14511674D02*
X14401730Y-14502150D01*
X14401730Y-14502150D02*
X14430301Y-14502150D01*
X14430301Y-14502150D02*
X14449349Y-14511674D01*
X14525539Y-14711674D02*
X14535063Y-14702150D01*
X14535063Y-14702150D02*
X14554111Y-14673579D01*
X14554111Y-14673579D02*
X14563634Y-14654531D01*
X14563634Y-14654531D02*
X14573158Y-14625960D01*
X14573158Y-14625960D02*
X14582682Y-14578341D01*
X14582682Y-14578341D02*
X14582682Y-14540246D01*
X14582682Y-14540246D02*
X14573158Y-14492627D01*
X14573158Y-14492627D02*
X14563634Y-14464055D01*
X14563634Y-14464055D02*
X14554111Y-14445008D01*
X14554111Y-14445008D02*
X14535063Y-14416436D01*
X14535063Y-14416436D02*
X14525539Y-14406912D01*
D11*
X9510000Y-14758000D02*
X9510000Y-14858000D01*
X9460000Y-14808000D02*
X9560000Y-14808000D01*
D10*
X9925539Y-14899484D02*
X9811253Y-14899484D01*
X9868396Y-14899484D02*
X9868396Y-14699484D01*
X9868396Y-14699484D02*
X9849348Y-14728055D01*
X9849348Y-14728055D02*
X9830301Y-14747103D01*
X9830301Y-14747103D02*
X9811253Y-14756627D01*
X10011253Y-14880436D02*
X10020777Y-14889960D01*
X10020777Y-14889960D02*
X10011253Y-14899484D01*
X10011253Y-14899484D02*
X10001729Y-14889960D01*
X10001729Y-14889960D02*
X10011253Y-14880436D01*
X10011253Y-14880436D02*
X10011253Y-14899484D01*
X10144586Y-14699484D02*
X10163634Y-14699484D01*
X10163634Y-14699484D02*
X10182682Y-14709008D01*
X10182682Y-14709008D02*
X10192205Y-14718531D01*
X10192205Y-14718531D02*
X10201729Y-14737579D01*
X10201729Y-14737579D02*
X10211253Y-14775674D01*
X10211253Y-14775674D02*
X10211253Y-14823293D01*
X10211253Y-14823293D02*
X10201729Y-14861388D01*
X10201729Y-14861388D02*
X10192205Y-14880436D01*
X10192205Y-14880436D02*
X10182682Y-14889960D01*
X10182682Y-14889960D02*
X10163634Y-14899484D01*
X10163634Y-14899484D02*
X10144586Y-14899484D01*
X10144586Y-14899484D02*
X10125539Y-14889960D01*
X10125539Y-14889960D02*
X10116015Y-14880436D01*
X10116015Y-14880436D02*
X10106491Y-14861388D01*
X10106491Y-14861388D02*
X10096967Y-14823293D01*
X10096967Y-14823293D02*
X10096967Y-14775674D01*
X10096967Y-14775674D02*
X10106491Y-14737579D01*
X10106491Y-14737579D02*
X10116015Y-14718531D01*
X10116015Y-14718531D02*
X10125539Y-14709008D01*
X10125539Y-14709008D02*
X10144586Y-14699484D01*
X10335063Y-14699484D02*
X10354110Y-14699484D01*
X10354110Y-14699484D02*
X10373158Y-14709008D01*
X10373158Y-14709008D02*
X10382682Y-14718531D01*
X10382682Y-14718531D02*
X10392205Y-14737579D01*
X10392205Y-14737579D02*
X10401729Y-14775674D01*
X10401729Y-14775674D02*
X10401729Y-14823293D01*
X10401729Y-14823293D02*
X10392205Y-14861388D01*
X10392205Y-14861388D02*
X10382682Y-14880436D01*
X10382682Y-14880436D02*
X10373158Y-14889960D01*
X10373158Y-14889960D02*
X10354110Y-14899484D01*
X10354110Y-14899484D02*
X10335063Y-14899484D01*
X10335063Y-14899484D02*
X10316015Y-14889960D01*
X10316015Y-14889960D02*
X10306491Y-14880436D01*
X10306491Y-14880436D02*
X10296967Y-14861388D01*
X10296967Y-14861388D02*
X10287444Y-14823293D01*
X10287444Y-14823293D02*
X10287444Y-14775674D01*
X10287444Y-14775674D02*
X10296967Y-14737579D01*
X10296967Y-14737579D02*
X10306491Y-14718531D01*
X10306491Y-14718531D02*
X10316015Y-14709008D01*
X10316015Y-14709008D02*
X10335063Y-14699484D01*
X10525539Y-14699484D02*
X10544586Y-14699484D01*
X10544586Y-14699484D02*
X10563634Y-14709008D01*
X10563634Y-14709008D02*
X10573158Y-14718531D01*
X10573158Y-14718531D02*
X10582682Y-14737579D01*
X10582682Y-14737579D02*
X10592205Y-14775674D01*
X10592205Y-14775674D02*
X10592205Y-14823293D01*
X10592205Y-14823293D02*
X10582682Y-14861388D01*
X10582682Y-14861388D02*
X10573158Y-14880436D01*
X10573158Y-14880436D02*
X10563634Y-14889960D01*
X10563634Y-14889960D02*
X10544586Y-14899484D01*
X10544586Y-14899484D02*
X10525539Y-14899484D01*
X10525539Y-14899484D02*
X10506491Y-14889960D01*
X10506491Y-14889960D02*
X10496967Y-14880436D01*
X10496967Y-14880436D02*
X10487444Y-14861388D01*
X10487444Y-14861388D02*
X10477920Y-14823293D01*
X10477920Y-14823293D02*
X10477920Y-14775674D01*
X10477920Y-14775674D02*
X10487444Y-14737579D01*
X10487444Y-14737579D02*
X10496967Y-14718531D01*
X10496967Y-14718531D02*
X10506491Y-14709008D01*
X10506491Y-14709008D02*
X10525539Y-14699484D01*
X10677920Y-14899484D02*
X10677920Y-14766150D01*
X10677920Y-14785198D02*
X10687444Y-14775674D01*
X10687444Y-14775674D02*
X10706491Y-14766150D01*
X10706491Y-14766150D02*
X10735063Y-14766150D01*
X10735063Y-14766150D02*
X10754110Y-14775674D01*
X10754110Y-14775674D02*
X10763634Y-14794722D01*
X10763634Y-14794722D02*
X10763634Y-14899484D01*
X10763634Y-14794722D02*
X10773158Y-14775674D01*
X10773158Y-14775674D02*
X10792205Y-14766150D01*
X10792205Y-14766150D02*
X10820777Y-14766150D01*
X10820777Y-14766150D02*
X10839825Y-14775674D01*
X10839825Y-14775674D02*
X10849348Y-14794722D01*
X10849348Y-14794722D02*
X10849348Y-14899484D01*
X10944586Y-14899484D02*
X10944586Y-14766150D01*
X10944586Y-14785198D02*
X10954110Y-14775674D01*
X10954110Y-14775674D02*
X10973158Y-14766150D01*
X10973158Y-14766150D02*
X11001729Y-14766150D01*
X11001729Y-14766150D02*
X11020777Y-14775674D01*
X11020777Y-14775674D02*
X11030301Y-14794722D01*
X11030301Y-14794722D02*
X11030301Y-14899484D01*
X11030301Y-14794722D02*
X11039825Y-14775674D01*
X11039825Y-14775674D02*
X11058872Y-14766150D01*
X11058872Y-14766150D02*
X11087444Y-14766150D01*
X11087444Y-14766150D02*
X11106491Y-14775674D01*
X11106491Y-14775674D02*
X11116015Y-14794722D01*
X11116015Y-14794722D02*
X11116015Y-14899484D01*
X11506491Y-14689960D02*
X11335063Y-14947103D01*
X11763634Y-14699484D02*
X11782682Y-14699484D01*
X11782682Y-14699484D02*
X11801729Y-14709008D01*
X11801729Y-14709008D02*
X11811253Y-14718531D01*
X11811253Y-14718531D02*
X11820777Y-14737579D01*
X11820777Y-14737579D02*
X11830301Y-14775674D01*
X11830301Y-14775674D02*
X11830301Y-14823293D01*
X11830301Y-14823293D02*
X11820777Y-14861388D01*
X11820777Y-14861388D02*
X11811253Y-14880436D01*
X11811253Y-14880436D02*
X11801729Y-14889960D01*
X11801729Y-14889960D02*
X11782682Y-14899484D01*
X11782682Y-14899484D02*
X11763634Y-14899484D01*
X11763634Y-14899484D02*
X11744586Y-14889960D01*
X11744586Y-14889960D02*
X11735063Y-14880436D01*
X11735063Y-14880436D02*
X11725539Y-14861388D01*
X11725539Y-14861388D02*
X11716015Y-14823293D01*
X11716015Y-14823293D02*
X11716015Y-14775674D01*
X11716015Y-14775674D02*
X11725539Y-14737579D01*
X11725539Y-14737579D02*
X11735063Y-14718531D01*
X11735063Y-14718531D02*
X11744586Y-14709008D01*
X11744586Y-14709008D02*
X11763634Y-14699484D01*
X11916015Y-14880436D02*
X11925539Y-14889960D01*
X11925539Y-14889960D02*
X11916015Y-14899484D01*
X11916015Y-14899484D02*
X11906491Y-14889960D01*
X11906491Y-14889960D02*
X11916015Y-14880436D01*
X11916015Y-14880436D02*
X11916015Y-14899484D01*
X12049348Y-14699484D02*
X12068396Y-14699484D01*
X12068396Y-14699484D02*
X12087444Y-14709008D01*
X12087444Y-14709008D02*
X12096967Y-14718531D01*
X12096967Y-14718531D02*
X12106491Y-14737579D01*
X12106491Y-14737579D02*
X12116015Y-14775674D01*
X12116015Y-14775674D02*
X12116015Y-14823293D01*
X12116015Y-14823293D02*
X12106491Y-14861388D01*
X12106491Y-14861388D02*
X12096967Y-14880436D01*
X12096967Y-14880436D02*
X12087444Y-14889960D01*
X12087444Y-14889960D02*
X12068396Y-14899484D01*
X12068396Y-14899484D02*
X12049348Y-14899484D01*
X12049348Y-14899484D02*
X12030301Y-14889960D01*
X12030301Y-14889960D02*
X12020777Y-14880436D01*
X12020777Y-14880436D02*
X12011253Y-14861388D01*
X12011253Y-14861388D02*
X12001729Y-14823293D01*
X12001729Y-14823293D02*
X12001729Y-14775674D01*
X12001729Y-14775674D02*
X12011253Y-14737579D01*
X12011253Y-14737579D02*
X12020777Y-14718531D01*
X12020777Y-14718531D02*
X12030301Y-14709008D01*
X12030301Y-14709008D02*
X12049348Y-14699484D01*
X12182682Y-14699484D02*
X12306491Y-14699484D01*
X12306491Y-14699484D02*
X12239825Y-14775674D01*
X12239825Y-14775674D02*
X12268396Y-14775674D01*
X12268396Y-14775674D02*
X12287444Y-14785198D01*
X12287444Y-14785198D02*
X12296967Y-14794722D01*
X12296967Y-14794722D02*
X12306491Y-14813769D01*
X12306491Y-14813769D02*
X12306491Y-14861388D01*
X12306491Y-14861388D02*
X12296967Y-14880436D01*
X12296967Y-14880436D02*
X12287444Y-14889960D01*
X12287444Y-14889960D02*
X12268396Y-14899484D01*
X12268396Y-14899484D02*
X12211253Y-14899484D01*
X12211253Y-14899484D02*
X12192206Y-14889960D01*
X12192206Y-14889960D02*
X12182682Y-14880436D01*
X12401729Y-14899484D02*
X12439825Y-14899484D01*
X12439825Y-14899484D02*
X12458872Y-14889960D01*
X12458872Y-14889960D02*
X12468396Y-14880436D01*
X12468396Y-14880436D02*
X12487444Y-14851865D01*
X12487444Y-14851865D02*
X12496967Y-14813769D01*
X12496967Y-14813769D02*
X12496967Y-14737579D01*
X12496967Y-14737579D02*
X12487444Y-14718531D01*
X12487444Y-14718531D02*
X12477920Y-14709008D01*
X12477920Y-14709008D02*
X12458872Y-14699484D01*
X12458872Y-14699484D02*
X12420777Y-14699484D01*
X12420777Y-14699484D02*
X12401729Y-14709008D01*
X12401729Y-14709008D02*
X12392206Y-14718531D01*
X12392206Y-14718531D02*
X12382682Y-14737579D01*
X12382682Y-14737579D02*
X12382682Y-14785198D01*
X12382682Y-14785198D02*
X12392206Y-14804246D01*
X12392206Y-14804246D02*
X12401729Y-14813769D01*
X12401729Y-14813769D02*
X12420777Y-14823293D01*
X12420777Y-14823293D02*
X12458872Y-14823293D01*
X12458872Y-14823293D02*
X12477920Y-14813769D01*
X12477920Y-14813769D02*
X12487444Y-14804246D01*
X12487444Y-14804246D02*
X12496967Y-14785198D01*
X12668396Y-14766150D02*
X12668396Y-14899484D01*
X12620777Y-14689960D02*
X12573158Y-14832817D01*
X12573158Y-14832817D02*
X12696967Y-14832817D01*
X12763634Y-14699484D02*
X12763634Y-14737579D01*
X12839825Y-14699484D02*
X12839825Y-14737579D01*
X13135063Y-14975674D02*
X13125539Y-14966150D01*
X13125539Y-14966150D02*
X13106491Y-14937579D01*
X13106491Y-14937579D02*
X13096968Y-14918531D01*
X13096968Y-14918531D02*
X13087444Y-14889960D01*
X13087444Y-14889960D02*
X13077920Y-14842341D01*
X13077920Y-14842341D02*
X13077920Y-14804246D01*
X13077920Y-14804246D02*
X13087444Y-14756627D01*
X13087444Y-14756627D02*
X13096968Y-14728055D01*
X13096968Y-14728055D02*
X13106491Y-14709008D01*
X13106491Y-14709008D02*
X13125539Y-14680436D01*
X13125539Y-14680436D02*
X13135063Y-14670912D01*
X13201729Y-14718531D02*
X13211253Y-14709008D01*
X13211253Y-14709008D02*
X13230301Y-14699484D01*
X13230301Y-14699484D02*
X13277920Y-14699484D01*
X13277920Y-14699484D02*
X13296968Y-14709008D01*
X13296968Y-14709008D02*
X13306491Y-14718531D01*
X13306491Y-14718531D02*
X13316015Y-14737579D01*
X13316015Y-14737579D02*
X13316015Y-14756627D01*
X13316015Y-14756627D02*
X13306491Y-14785198D01*
X13306491Y-14785198D02*
X13192206Y-14899484D01*
X13192206Y-14899484D02*
X13316015Y-14899484D01*
X13496968Y-14699484D02*
X13401729Y-14699484D01*
X13401729Y-14699484D02*
X13392206Y-14794722D01*
X13392206Y-14794722D02*
X13401729Y-14785198D01*
X13401729Y-14785198D02*
X13420777Y-14775674D01*
X13420777Y-14775674D02*
X13468396Y-14775674D01*
X13468396Y-14775674D02*
X13487444Y-14785198D01*
X13487444Y-14785198D02*
X13496968Y-14794722D01*
X13496968Y-14794722D02*
X13506491Y-14813769D01*
X13506491Y-14813769D02*
X13506491Y-14861388D01*
X13506491Y-14861388D02*
X13496968Y-14880436D01*
X13496968Y-14880436D02*
X13487444Y-14889960D01*
X13487444Y-14889960D02*
X13468396Y-14899484D01*
X13468396Y-14899484D02*
X13420777Y-14899484D01*
X13420777Y-14899484D02*
X13401729Y-14889960D01*
X13401729Y-14889960D02*
X13392206Y-14880436D01*
X13744587Y-14899484D02*
X13744587Y-14699484D01*
X13830301Y-14899484D02*
X13830301Y-14794722D01*
X13830301Y-14794722D02*
X13820777Y-14775674D01*
X13820777Y-14775674D02*
X13801730Y-14766150D01*
X13801730Y-14766150D02*
X13773158Y-14766150D01*
X13773158Y-14766150D02*
X13754110Y-14775674D01*
X13754110Y-14775674D02*
X13744587Y-14785198D01*
X13954110Y-14899484D02*
X13935063Y-14889960D01*
X13935063Y-14889960D02*
X13925539Y-14880436D01*
X13925539Y-14880436D02*
X13916015Y-14861388D01*
X13916015Y-14861388D02*
X13916015Y-14804246D01*
X13916015Y-14804246D02*
X13925539Y-14785198D01*
X13925539Y-14785198D02*
X13935063Y-14775674D01*
X13935063Y-14775674D02*
X13954110Y-14766150D01*
X13954110Y-14766150D02*
X13982682Y-14766150D01*
X13982682Y-14766150D02*
X14001730Y-14775674D01*
X14001730Y-14775674D02*
X14011253Y-14785198D01*
X14011253Y-14785198D02*
X14020777Y-14804246D01*
X14020777Y-14804246D02*
X14020777Y-14861388D01*
X14020777Y-14861388D02*
X14011253Y-14880436D01*
X14011253Y-14880436D02*
X14001730Y-14889960D01*
X14001730Y-14889960D02*
X13982682Y-14899484D01*
X13982682Y-14899484D02*
X13954110Y-14899484D01*
X14135063Y-14899484D02*
X14116015Y-14889960D01*
X14116015Y-14889960D02*
X14106491Y-14870912D01*
X14106491Y-14870912D02*
X14106491Y-14699484D01*
X14287444Y-14889960D02*
X14268396Y-14899484D01*
X14268396Y-14899484D02*
X14230301Y-14899484D01*
X14230301Y-14899484D02*
X14211253Y-14889960D01*
X14211253Y-14889960D02*
X14201730Y-14870912D01*
X14201730Y-14870912D02*
X14201730Y-14794722D01*
X14201730Y-14794722D02*
X14211253Y-14775674D01*
X14211253Y-14775674D02*
X14230301Y-14766150D01*
X14230301Y-14766150D02*
X14268396Y-14766150D01*
X14268396Y-14766150D02*
X14287444Y-14775674D01*
X14287444Y-14775674D02*
X14296968Y-14794722D01*
X14296968Y-14794722D02*
X14296968Y-14813769D01*
X14296968Y-14813769D02*
X14201730Y-14832817D01*
X14373158Y-14889960D02*
X14392206Y-14899484D01*
X14392206Y-14899484D02*
X14430301Y-14899484D01*
X14430301Y-14899484D02*
X14449349Y-14889960D01*
X14449349Y-14889960D02*
X14458872Y-14870912D01*
X14458872Y-14870912D02*
X14458872Y-14861388D01*
X14458872Y-14861388D02*
X14449349Y-14842341D01*
X14449349Y-14842341D02*
X14430301Y-14832817D01*
X14430301Y-14832817D02*
X14401730Y-14832817D01*
X14401730Y-14832817D02*
X14382682Y-14823293D01*
X14382682Y-14823293D02*
X14373158Y-14804246D01*
X14373158Y-14804246D02*
X14373158Y-14794722D01*
X14373158Y-14794722D02*
X14382682Y-14775674D01*
X14382682Y-14775674D02*
X14401730Y-14766150D01*
X14401730Y-14766150D02*
X14430301Y-14766150D01*
X14430301Y-14766150D02*
X14449349Y-14775674D01*
X14525539Y-14975674D02*
X14535063Y-14966150D01*
X14535063Y-14966150D02*
X14554111Y-14937579D01*
X14554111Y-14937579D02*
X14563634Y-14918531D01*
X14563634Y-14918531D02*
X14573158Y-14889960D01*
X14573158Y-14889960D02*
X14582682Y-14842341D01*
X14582682Y-14842341D02*
X14582682Y-14804246D01*
X14582682Y-14804246D02*
X14573158Y-14756627D01*
X14573158Y-14756627D02*
X14563634Y-14728055D01*
X14563634Y-14728055D02*
X14554111Y-14709008D01*
X14554111Y-14709008D02*
X14535063Y-14680436D01*
X14535063Y-14680436D02*
X14525539Y-14670912D01*
D12*
X9545121Y-15107921D02*
X9545121Y-15036079D01*
X9473279Y-15036079D01*
X9473279Y-15107921D01*
X9545121Y-15107921D01*
D10*
X9925539Y-15163484D02*
X9811253Y-15163484D01*
X9868396Y-15163484D02*
X9868396Y-14963484D01*
X9868396Y-14963484D02*
X9849348Y-14992055D01*
X9849348Y-14992055D02*
X9830301Y-15011103D01*
X9830301Y-15011103D02*
X9811253Y-15020627D01*
X10011253Y-15144436D02*
X10020777Y-15153960D01*
X10020777Y-15153960D02*
X10011253Y-15163484D01*
X10011253Y-15163484D02*
X10001729Y-15153960D01*
X10001729Y-15153960D02*
X10011253Y-15144436D01*
X10011253Y-15144436D02*
X10011253Y-15163484D01*
X10144586Y-14963484D02*
X10163634Y-14963484D01*
X10163634Y-14963484D02*
X10182682Y-14973008D01*
X10182682Y-14973008D02*
X10192205Y-14982531D01*
X10192205Y-14982531D02*
X10201729Y-15001579D01*
X10201729Y-15001579D02*
X10211253Y-15039674D01*
X10211253Y-15039674D02*
X10211253Y-15087293D01*
X10211253Y-15087293D02*
X10201729Y-15125388D01*
X10201729Y-15125388D02*
X10192205Y-15144436D01*
X10192205Y-15144436D02*
X10182682Y-15153960D01*
X10182682Y-15153960D02*
X10163634Y-15163484D01*
X10163634Y-15163484D02*
X10144586Y-15163484D01*
X10144586Y-15163484D02*
X10125539Y-15153960D01*
X10125539Y-15153960D02*
X10116015Y-15144436D01*
X10116015Y-15144436D02*
X10106491Y-15125388D01*
X10106491Y-15125388D02*
X10096967Y-15087293D01*
X10096967Y-15087293D02*
X10096967Y-15039674D01*
X10096967Y-15039674D02*
X10106491Y-15001579D01*
X10106491Y-15001579D02*
X10116015Y-14982531D01*
X10116015Y-14982531D02*
X10125539Y-14973008D01*
X10125539Y-14973008D02*
X10144586Y-14963484D01*
X10401729Y-15163484D02*
X10287444Y-15163484D01*
X10344586Y-15163484D02*
X10344586Y-14963484D01*
X10344586Y-14963484D02*
X10325539Y-14992055D01*
X10325539Y-14992055D02*
X10306491Y-15011103D01*
X10306491Y-15011103D02*
X10287444Y-15020627D01*
X10573158Y-14963484D02*
X10535063Y-14963484D01*
X10535063Y-14963484D02*
X10516015Y-14973008D01*
X10516015Y-14973008D02*
X10506491Y-14982531D01*
X10506491Y-14982531D02*
X10487444Y-15011103D01*
X10487444Y-15011103D02*
X10477920Y-15049198D01*
X10477920Y-15049198D02*
X10477920Y-15125388D01*
X10477920Y-15125388D02*
X10487444Y-15144436D01*
X10487444Y-15144436D02*
X10496967Y-15153960D01*
X10496967Y-15153960D02*
X10516015Y-15163484D01*
X10516015Y-15163484D02*
X10554110Y-15163484D01*
X10554110Y-15163484D02*
X10573158Y-15153960D01*
X10573158Y-15153960D02*
X10582682Y-15144436D01*
X10582682Y-15144436D02*
X10592205Y-15125388D01*
X10592205Y-15125388D02*
X10592205Y-15077769D01*
X10592205Y-15077769D02*
X10582682Y-15058722D01*
X10582682Y-15058722D02*
X10573158Y-15049198D01*
X10573158Y-15049198D02*
X10554110Y-15039674D01*
X10554110Y-15039674D02*
X10516015Y-15039674D01*
X10516015Y-15039674D02*
X10496967Y-15049198D01*
X10496967Y-15049198D02*
X10487444Y-15058722D01*
X10487444Y-15058722D02*
X10477920Y-15077769D01*
X10677920Y-15163484D02*
X10677920Y-15030150D01*
X10677920Y-15049198D02*
X10687444Y-15039674D01*
X10687444Y-15039674D02*
X10706491Y-15030150D01*
X10706491Y-15030150D02*
X10735063Y-15030150D01*
X10735063Y-15030150D02*
X10754110Y-15039674D01*
X10754110Y-15039674D02*
X10763634Y-15058722D01*
X10763634Y-15058722D02*
X10763634Y-15163484D01*
X10763634Y-15058722D02*
X10773158Y-15039674D01*
X10773158Y-15039674D02*
X10792205Y-15030150D01*
X10792205Y-15030150D02*
X10820777Y-15030150D01*
X10820777Y-15030150D02*
X10839825Y-15039674D01*
X10839825Y-15039674D02*
X10849348Y-15058722D01*
X10849348Y-15058722D02*
X10849348Y-15163484D01*
X10944586Y-15163484D02*
X10944586Y-15030150D01*
X10944586Y-15049198D02*
X10954110Y-15039674D01*
X10954110Y-15039674D02*
X10973158Y-15030150D01*
X10973158Y-15030150D02*
X11001729Y-15030150D01*
X11001729Y-15030150D02*
X11020777Y-15039674D01*
X11020777Y-15039674D02*
X11030301Y-15058722D01*
X11030301Y-15058722D02*
X11030301Y-15163484D01*
X11030301Y-15058722D02*
X11039825Y-15039674D01*
X11039825Y-15039674D02*
X11058872Y-15030150D01*
X11058872Y-15030150D02*
X11087444Y-15030150D01*
X11087444Y-15030150D02*
X11106491Y-15039674D01*
X11106491Y-15039674D02*
X11116015Y-15058722D01*
X11116015Y-15058722D02*
X11116015Y-15163484D01*
X11506491Y-14953960D02*
X11335063Y-15211103D01*
X11763634Y-14963484D02*
X11782682Y-14963484D01*
X11782682Y-14963484D02*
X11801729Y-14973008D01*
X11801729Y-14973008D02*
X11811253Y-14982531D01*
X11811253Y-14982531D02*
X11820777Y-15001579D01*
X11820777Y-15001579D02*
X11830301Y-15039674D01*
X11830301Y-15039674D02*
X11830301Y-15087293D01*
X11830301Y-15087293D02*
X11820777Y-15125388D01*
X11820777Y-15125388D02*
X11811253Y-15144436D01*
X11811253Y-15144436D02*
X11801729Y-15153960D01*
X11801729Y-15153960D02*
X11782682Y-15163484D01*
X11782682Y-15163484D02*
X11763634Y-15163484D01*
X11763634Y-15163484D02*
X11744586Y-15153960D01*
X11744586Y-15153960D02*
X11735063Y-15144436D01*
X11735063Y-15144436D02*
X11725539Y-15125388D01*
X11725539Y-15125388D02*
X11716015Y-15087293D01*
X11716015Y-15087293D02*
X11716015Y-15039674D01*
X11716015Y-15039674D02*
X11725539Y-15001579D01*
X11725539Y-15001579D02*
X11735063Y-14982531D01*
X11735063Y-14982531D02*
X11744586Y-14973008D01*
X11744586Y-14973008D02*
X11763634Y-14963484D01*
X11916015Y-15144436D02*
X11925539Y-15153960D01*
X11925539Y-15153960D02*
X11916015Y-15163484D01*
X11916015Y-15163484D02*
X11906491Y-15153960D01*
X11906491Y-15153960D02*
X11916015Y-15144436D01*
X11916015Y-15144436D02*
X11916015Y-15163484D01*
X12049348Y-14963484D02*
X12068396Y-14963484D01*
X12068396Y-14963484D02*
X12087444Y-14973008D01*
X12087444Y-14973008D02*
X12096967Y-14982531D01*
X12096967Y-14982531D02*
X12106491Y-15001579D01*
X12106491Y-15001579D02*
X12116015Y-15039674D01*
X12116015Y-15039674D02*
X12116015Y-15087293D01*
X12116015Y-15087293D02*
X12106491Y-15125388D01*
X12106491Y-15125388D02*
X12096967Y-15144436D01*
X12096967Y-15144436D02*
X12087444Y-15153960D01*
X12087444Y-15153960D02*
X12068396Y-15163484D01*
X12068396Y-15163484D02*
X12049348Y-15163484D01*
X12049348Y-15163484D02*
X12030301Y-15153960D01*
X12030301Y-15153960D02*
X12020777Y-15144436D01*
X12020777Y-15144436D02*
X12011253Y-15125388D01*
X12011253Y-15125388D02*
X12001729Y-15087293D01*
X12001729Y-15087293D02*
X12001729Y-15039674D01*
X12001729Y-15039674D02*
X12011253Y-15001579D01*
X12011253Y-15001579D02*
X12020777Y-14982531D01*
X12020777Y-14982531D02*
X12030301Y-14973008D01*
X12030301Y-14973008D02*
X12049348Y-14963484D01*
X12287444Y-15030150D02*
X12287444Y-15163484D01*
X12239825Y-14953960D02*
X12192206Y-15096817D01*
X12192206Y-15096817D02*
X12316015Y-15096817D01*
X12430301Y-14963484D02*
X12449348Y-14963484D01*
X12449348Y-14963484D02*
X12468396Y-14973008D01*
X12468396Y-14973008D02*
X12477920Y-14982531D01*
X12477920Y-14982531D02*
X12487444Y-15001579D01*
X12487444Y-15001579D02*
X12496967Y-15039674D01*
X12496967Y-15039674D02*
X12496967Y-15087293D01*
X12496967Y-15087293D02*
X12487444Y-15125388D01*
X12487444Y-15125388D02*
X12477920Y-15144436D01*
X12477920Y-15144436D02*
X12468396Y-15153960D01*
X12468396Y-15153960D02*
X12449348Y-15163484D01*
X12449348Y-15163484D02*
X12430301Y-15163484D01*
X12430301Y-15163484D02*
X12411253Y-15153960D01*
X12411253Y-15153960D02*
X12401729Y-15144436D01*
X12401729Y-15144436D02*
X12392206Y-15125388D01*
X12392206Y-15125388D02*
X12382682Y-15087293D01*
X12382682Y-15087293D02*
X12382682Y-15039674D01*
X12382682Y-15039674D02*
X12392206Y-15001579D01*
X12392206Y-15001579D02*
X12401729Y-14982531D01*
X12401729Y-14982531D02*
X12411253Y-14973008D01*
X12411253Y-14973008D02*
X12430301Y-14963484D01*
X12620777Y-14963484D02*
X12639825Y-14963484D01*
X12639825Y-14963484D02*
X12658872Y-14973008D01*
X12658872Y-14973008D02*
X12668396Y-14982531D01*
X12668396Y-14982531D02*
X12677920Y-15001579D01*
X12677920Y-15001579D02*
X12687444Y-15039674D01*
X12687444Y-15039674D02*
X12687444Y-15087293D01*
X12687444Y-15087293D02*
X12677920Y-15125388D01*
X12677920Y-15125388D02*
X12668396Y-15144436D01*
X12668396Y-15144436D02*
X12658872Y-15153960D01*
X12658872Y-15153960D02*
X12639825Y-15163484D01*
X12639825Y-15163484D02*
X12620777Y-15163484D01*
X12620777Y-15163484D02*
X12601729Y-15153960D01*
X12601729Y-15153960D02*
X12592206Y-15144436D01*
X12592206Y-15144436D02*
X12582682Y-15125388D01*
X12582682Y-15125388D02*
X12573158Y-15087293D01*
X12573158Y-15087293D02*
X12573158Y-15039674D01*
X12573158Y-15039674D02*
X12582682Y-15001579D01*
X12582682Y-15001579D02*
X12592206Y-14982531D01*
X12592206Y-14982531D02*
X12601729Y-14973008D01*
X12601729Y-14973008D02*
X12620777Y-14963484D01*
X12763634Y-14963484D02*
X12763634Y-15001579D01*
X12839825Y-14963484D02*
X12839825Y-15001579D01*
X13135063Y-15239674D02*
X13125539Y-15230150D01*
X13125539Y-15230150D02*
X13106491Y-15201579D01*
X13106491Y-15201579D02*
X13096968Y-15182531D01*
X13096968Y-15182531D02*
X13087444Y-15153960D01*
X13087444Y-15153960D02*
X13077920Y-15106341D01*
X13077920Y-15106341D02*
X13077920Y-15068246D01*
X13077920Y-15068246D02*
X13087444Y-15020627D01*
X13087444Y-15020627D02*
X13096968Y-14992055D01*
X13096968Y-14992055D02*
X13106491Y-14973008D01*
X13106491Y-14973008D02*
X13125539Y-14944436D01*
X13125539Y-14944436D02*
X13135063Y-14934912D01*
X13316015Y-15163484D02*
X13201729Y-15163484D01*
X13258872Y-15163484D02*
X13258872Y-14963484D01*
X13258872Y-14963484D02*
X13239825Y-14992055D01*
X13239825Y-14992055D02*
X13220777Y-15011103D01*
X13220777Y-15011103D02*
X13201729Y-15020627D01*
X13392206Y-14982531D02*
X13401729Y-14973008D01*
X13401729Y-14973008D02*
X13420777Y-14963484D01*
X13420777Y-14963484D02*
X13468396Y-14963484D01*
X13468396Y-14963484D02*
X13487444Y-14973008D01*
X13487444Y-14973008D02*
X13496968Y-14982531D01*
X13496968Y-14982531D02*
X13506491Y-15001579D01*
X13506491Y-15001579D02*
X13506491Y-15020627D01*
X13506491Y-15020627D02*
X13496968Y-15049198D01*
X13496968Y-15049198D02*
X13382682Y-15163484D01*
X13382682Y-15163484D02*
X13506491Y-15163484D01*
X13744587Y-15163484D02*
X13744587Y-14963484D01*
X13830301Y-15163484D02*
X13830301Y-15058722D01*
X13830301Y-15058722D02*
X13820777Y-15039674D01*
X13820777Y-15039674D02*
X13801730Y-15030150D01*
X13801730Y-15030150D02*
X13773158Y-15030150D01*
X13773158Y-15030150D02*
X13754110Y-15039674D01*
X13754110Y-15039674D02*
X13744587Y-15049198D01*
X13954110Y-15163484D02*
X13935063Y-15153960D01*
X13935063Y-15153960D02*
X13925539Y-15144436D01*
X13925539Y-15144436D02*
X13916015Y-15125388D01*
X13916015Y-15125388D02*
X13916015Y-15068246D01*
X13916015Y-15068246D02*
X13925539Y-15049198D01*
X13925539Y-15049198D02*
X13935063Y-15039674D01*
X13935063Y-15039674D02*
X13954110Y-15030150D01*
X13954110Y-15030150D02*
X13982682Y-15030150D01*
X13982682Y-15030150D02*
X14001730Y-15039674D01*
X14001730Y-15039674D02*
X14011253Y-15049198D01*
X14011253Y-15049198D02*
X14020777Y-15068246D01*
X14020777Y-15068246D02*
X14020777Y-15125388D01*
X14020777Y-15125388D02*
X14011253Y-15144436D01*
X14011253Y-15144436D02*
X14001730Y-15153960D01*
X14001730Y-15153960D02*
X13982682Y-15163484D01*
X13982682Y-15163484D02*
X13954110Y-15163484D01*
X14135063Y-15163484D02*
X14116015Y-15153960D01*
X14116015Y-15153960D02*
X14106491Y-15134912D01*
X14106491Y-15134912D02*
X14106491Y-14963484D01*
X14287444Y-15153960D02*
X14268396Y-15163484D01*
X14268396Y-15163484D02*
X14230301Y-15163484D01*
X14230301Y-15163484D02*
X14211253Y-15153960D01*
X14211253Y-15153960D02*
X14201730Y-15134912D01*
X14201730Y-15134912D02*
X14201730Y-15058722D01*
X14201730Y-15058722D02*
X14211253Y-15039674D01*
X14211253Y-15039674D02*
X14230301Y-15030150D01*
X14230301Y-15030150D02*
X14268396Y-15030150D01*
X14268396Y-15030150D02*
X14287444Y-15039674D01*
X14287444Y-15039674D02*
X14296968Y-15058722D01*
X14296968Y-15058722D02*
X14296968Y-15077769D01*
X14296968Y-15077769D02*
X14201730Y-15096817D01*
X14373158Y-15153960D02*
X14392206Y-15163484D01*
X14392206Y-15163484D02*
X14430301Y-15163484D01*
X14430301Y-15163484D02*
X14449349Y-15153960D01*
X14449349Y-15153960D02*
X14458872Y-15134912D01*
X14458872Y-15134912D02*
X14458872Y-15125388D01*
X14458872Y-15125388D02*
X14449349Y-15106341D01*
X14449349Y-15106341D02*
X14430301Y-15096817D01*
X14430301Y-15096817D02*
X14401730Y-15096817D01*
X14401730Y-15096817D02*
X14382682Y-15087293D01*
X14382682Y-15087293D02*
X14373158Y-15068246D01*
X14373158Y-15068246D02*
X14373158Y-15058722D01*
X14373158Y-15058722D02*
X14382682Y-15039674D01*
X14382682Y-15039674D02*
X14401730Y-15030150D01*
X14401730Y-15030150D02*
X14430301Y-15030150D01*
X14430301Y-15030150D02*
X14449349Y-15039674D01*
X14525539Y-15239674D02*
X14535063Y-15230150D01*
X14535063Y-15230150D02*
X14554111Y-15201579D01*
X14554111Y-15201579D02*
X14563634Y-15182531D01*
X14563634Y-15182531D02*
X14573158Y-15153960D01*
X14573158Y-15153960D02*
X14582682Y-15106341D01*
X14582682Y-15106341D02*
X14582682Y-15068246D01*
X14582682Y-15068246D02*
X14573158Y-15020627D01*
X14573158Y-15020627D02*
X14563634Y-14992055D01*
X14563634Y-14992055D02*
X14554111Y-14973008D01*
X14554111Y-14973008D02*
X14535063Y-14944436D01*
X14535063Y-14944436D02*
X14525539Y-14934912D01*
X9460000Y-15436000D02*
X9560000Y-15336000D01*
X9460000Y-15236000D01*
X9360000Y-15336000D01*
X9460000Y-15436000D01*
X9811253Y-15246531D02*
X9820777Y-15237008D01*
X9820777Y-15237008D02*
X9839824Y-15227484D01*
X9839824Y-15227484D02*
X9887444Y-15227484D01*
X9887444Y-15227484D02*
X9906491Y-15237008D01*
X9906491Y-15237008D02*
X9916015Y-15246531D01*
X9916015Y-15246531D02*
X9925539Y-15265579D01*
X9925539Y-15265579D02*
X9925539Y-15284627D01*
X9925539Y-15284627D02*
X9916015Y-15313198D01*
X9916015Y-15313198D02*
X9801729Y-15427484D01*
X9801729Y-15427484D02*
X9925539Y-15427484D01*
X10011253Y-15408436D02*
X10020777Y-15417960D01*
X10020777Y-15417960D02*
X10011253Y-15427484D01*
X10011253Y-15427484D02*
X10001729Y-15417960D01*
X10001729Y-15417960D02*
X10011253Y-15408436D01*
X10011253Y-15408436D02*
X10011253Y-15427484D01*
X10201729Y-15227484D02*
X10106491Y-15227484D01*
X10106491Y-15227484D02*
X10096967Y-15322722D01*
X10096967Y-15322722D02*
X10106491Y-15313198D01*
X10106491Y-15313198D02*
X10125539Y-15303674D01*
X10125539Y-15303674D02*
X10173158Y-15303674D01*
X10173158Y-15303674D02*
X10192205Y-15313198D01*
X10192205Y-15313198D02*
X10201729Y-15322722D01*
X10201729Y-15322722D02*
X10211253Y-15341769D01*
X10211253Y-15341769D02*
X10211253Y-15389388D01*
X10211253Y-15389388D02*
X10201729Y-15408436D01*
X10201729Y-15408436D02*
X10192205Y-15417960D01*
X10192205Y-15417960D02*
X10173158Y-15427484D01*
X10173158Y-15427484D02*
X10125539Y-15427484D01*
X10125539Y-15427484D02*
X10106491Y-15417960D01*
X10106491Y-15417960D02*
X10096967Y-15408436D01*
X10335063Y-15227484D02*
X10354110Y-15227484D01*
X10354110Y-15227484D02*
X10373158Y-15237008D01*
X10373158Y-15237008D02*
X10382682Y-15246531D01*
X10382682Y-15246531D02*
X10392205Y-15265579D01*
X10392205Y-15265579D02*
X10401729Y-15303674D01*
X10401729Y-15303674D02*
X10401729Y-15351293D01*
X10401729Y-15351293D02*
X10392205Y-15389388D01*
X10392205Y-15389388D02*
X10382682Y-15408436D01*
X10382682Y-15408436D02*
X10373158Y-15417960D01*
X10373158Y-15417960D02*
X10354110Y-15427484D01*
X10354110Y-15427484D02*
X10335063Y-15427484D01*
X10335063Y-15427484D02*
X10316015Y-15417960D01*
X10316015Y-15417960D02*
X10306491Y-15408436D01*
X10306491Y-15408436D02*
X10296967Y-15389388D01*
X10296967Y-15389388D02*
X10287444Y-15351293D01*
X10287444Y-15351293D02*
X10287444Y-15303674D01*
X10287444Y-15303674D02*
X10296967Y-15265579D01*
X10296967Y-15265579D02*
X10306491Y-15246531D01*
X10306491Y-15246531D02*
X10316015Y-15237008D01*
X10316015Y-15237008D02*
X10335063Y-15227484D01*
X10525539Y-15227484D02*
X10544586Y-15227484D01*
X10544586Y-15227484D02*
X10563634Y-15237008D01*
X10563634Y-15237008D02*
X10573158Y-15246531D01*
X10573158Y-15246531D02*
X10582682Y-15265579D01*
X10582682Y-15265579D02*
X10592205Y-15303674D01*
X10592205Y-15303674D02*
X10592205Y-15351293D01*
X10592205Y-15351293D02*
X10582682Y-15389388D01*
X10582682Y-15389388D02*
X10573158Y-15408436D01*
X10573158Y-15408436D02*
X10563634Y-15417960D01*
X10563634Y-15417960D02*
X10544586Y-15427484D01*
X10544586Y-15427484D02*
X10525539Y-15427484D01*
X10525539Y-15427484D02*
X10506491Y-15417960D01*
X10506491Y-15417960D02*
X10496967Y-15408436D01*
X10496967Y-15408436D02*
X10487444Y-15389388D01*
X10487444Y-15389388D02*
X10477920Y-15351293D01*
X10477920Y-15351293D02*
X10477920Y-15303674D01*
X10477920Y-15303674D02*
X10487444Y-15265579D01*
X10487444Y-15265579D02*
X10496967Y-15246531D01*
X10496967Y-15246531D02*
X10506491Y-15237008D01*
X10506491Y-15237008D02*
X10525539Y-15227484D01*
X10677920Y-15427484D02*
X10677920Y-15294150D01*
X10677920Y-15313198D02*
X10687444Y-15303674D01*
X10687444Y-15303674D02*
X10706491Y-15294150D01*
X10706491Y-15294150D02*
X10735063Y-15294150D01*
X10735063Y-15294150D02*
X10754110Y-15303674D01*
X10754110Y-15303674D02*
X10763634Y-15322722D01*
X10763634Y-15322722D02*
X10763634Y-15427484D01*
X10763634Y-15322722D02*
X10773158Y-15303674D01*
X10773158Y-15303674D02*
X10792205Y-15294150D01*
X10792205Y-15294150D02*
X10820777Y-15294150D01*
X10820777Y-15294150D02*
X10839825Y-15303674D01*
X10839825Y-15303674D02*
X10849348Y-15322722D01*
X10849348Y-15322722D02*
X10849348Y-15427484D01*
X10944586Y-15427484D02*
X10944586Y-15294150D01*
X10944586Y-15313198D02*
X10954110Y-15303674D01*
X10954110Y-15303674D02*
X10973158Y-15294150D01*
X10973158Y-15294150D02*
X11001729Y-15294150D01*
X11001729Y-15294150D02*
X11020777Y-15303674D01*
X11020777Y-15303674D02*
X11030301Y-15322722D01*
X11030301Y-15322722D02*
X11030301Y-15427484D01*
X11030301Y-15322722D02*
X11039825Y-15303674D01*
X11039825Y-15303674D02*
X11058872Y-15294150D01*
X11058872Y-15294150D02*
X11087444Y-15294150D01*
X11087444Y-15294150D02*
X11106491Y-15303674D01*
X11106491Y-15303674D02*
X11116015Y-15322722D01*
X11116015Y-15322722D02*
X11116015Y-15427484D01*
X11506491Y-15217960D02*
X11335063Y-15475103D01*
X11763634Y-15227484D02*
X11782682Y-15227484D01*
X11782682Y-15227484D02*
X11801729Y-15237008D01*
X11801729Y-15237008D02*
X11811253Y-15246531D01*
X11811253Y-15246531D02*
X11820777Y-15265579D01*
X11820777Y-15265579D02*
X11830301Y-15303674D01*
X11830301Y-15303674D02*
X11830301Y-15351293D01*
X11830301Y-15351293D02*
X11820777Y-15389388D01*
X11820777Y-15389388D02*
X11811253Y-15408436D01*
X11811253Y-15408436D02*
X11801729Y-15417960D01*
X11801729Y-15417960D02*
X11782682Y-15427484D01*
X11782682Y-15427484D02*
X11763634Y-15427484D01*
X11763634Y-15427484D02*
X11744586Y-15417960D01*
X11744586Y-15417960D02*
X11735063Y-15408436D01*
X11735063Y-15408436D02*
X11725539Y-15389388D01*
X11725539Y-15389388D02*
X11716015Y-15351293D01*
X11716015Y-15351293D02*
X11716015Y-15303674D01*
X11716015Y-15303674D02*
X11725539Y-15265579D01*
X11725539Y-15265579D02*
X11735063Y-15246531D01*
X11735063Y-15246531D02*
X11744586Y-15237008D01*
X11744586Y-15237008D02*
X11763634Y-15227484D01*
X11916015Y-15408436D02*
X11925539Y-15417960D01*
X11925539Y-15417960D02*
X11916015Y-15427484D01*
X11916015Y-15427484D02*
X11906491Y-15417960D01*
X11906491Y-15417960D02*
X11916015Y-15408436D01*
X11916015Y-15408436D02*
X11916015Y-15427484D01*
X12049348Y-15227484D02*
X12068396Y-15227484D01*
X12068396Y-15227484D02*
X12087444Y-15237008D01*
X12087444Y-15237008D02*
X12096967Y-15246531D01*
X12096967Y-15246531D02*
X12106491Y-15265579D01*
X12106491Y-15265579D02*
X12116015Y-15303674D01*
X12116015Y-15303674D02*
X12116015Y-15351293D01*
X12116015Y-15351293D02*
X12106491Y-15389388D01*
X12106491Y-15389388D02*
X12096967Y-15408436D01*
X12096967Y-15408436D02*
X12087444Y-15417960D01*
X12087444Y-15417960D02*
X12068396Y-15427484D01*
X12068396Y-15427484D02*
X12049348Y-15427484D01*
X12049348Y-15427484D02*
X12030301Y-15417960D01*
X12030301Y-15417960D02*
X12020777Y-15408436D01*
X12020777Y-15408436D02*
X12011253Y-15389388D01*
X12011253Y-15389388D02*
X12001729Y-15351293D01*
X12001729Y-15351293D02*
X12001729Y-15303674D01*
X12001729Y-15303674D02*
X12011253Y-15265579D01*
X12011253Y-15265579D02*
X12020777Y-15246531D01*
X12020777Y-15246531D02*
X12030301Y-15237008D01*
X12030301Y-15237008D02*
X12049348Y-15227484D01*
X12211253Y-15427484D02*
X12249348Y-15427484D01*
X12249348Y-15427484D02*
X12268396Y-15417960D01*
X12268396Y-15417960D02*
X12277920Y-15408436D01*
X12277920Y-15408436D02*
X12296967Y-15379865D01*
X12296967Y-15379865D02*
X12306491Y-15341769D01*
X12306491Y-15341769D02*
X12306491Y-15265579D01*
X12306491Y-15265579D02*
X12296967Y-15246531D01*
X12296967Y-15246531D02*
X12287444Y-15237008D01*
X12287444Y-15237008D02*
X12268396Y-15227484D01*
X12268396Y-15227484D02*
X12230301Y-15227484D01*
X12230301Y-15227484D02*
X12211253Y-15237008D01*
X12211253Y-15237008D02*
X12201729Y-15246531D01*
X12201729Y-15246531D02*
X12192206Y-15265579D01*
X12192206Y-15265579D02*
X12192206Y-15313198D01*
X12192206Y-15313198D02*
X12201729Y-15332246D01*
X12201729Y-15332246D02*
X12211253Y-15341769D01*
X12211253Y-15341769D02*
X12230301Y-15351293D01*
X12230301Y-15351293D02*
X12268396Y-15351293D01*
X12268396Y-15351293D02*
X12287444Y-15341769D01*
X12287444Y-15341769D02*
X12296967Y-15332246D01*
X12296967Y-15332246D02*
X12306491Y-15313198D01*
X12420777Y-15313198D02*
X12401729Y-15303674D01*
X12401729Y-15303674D02*
X12392206Y-15294150D01*
X12392206Y-15294150D02*
X12382682Y-15275103D01*
X12382682Y-15275103D02*
X12382682Y-15265579D01*
X12382682Y-15265579D02*
X12392206Y-15246531D01*
X12392206Y-15246531D02*
X12401729Y-15237008D01*
X12401729Y-15237008D02*
X12420777Y-15227484D01*
X12420777Y-15227484D02*
X12458872Y-15227484D01*
X12458872Y-15227484D02*
X12477920Y-15237008D01*
X12477920Y-15237008D02*
X12487444Y-15246531D01*
X12487444Y-15246531D02*
X12496967Y-15265579D01*
X12496967Y-15265579D02*
X12496967Y-15275103D01*
X12496967Y-15275103D02*
X12487444Y-15294150D01*
X12487444Y-15294150D02*
X12477920Y-15303674D01*
X12477920Y-15303674D02*
X12458872Y-15313198D01*
X12458872Y-15313198D02*
X12420777Y-15313198D01*
X12420777Y-15313198D02*
X12401729Y-15322722D01*
X12401729Y-15322722D02*
X12392206Y-15332246D01*
X12392206Y-15332246D02*
X12382682Y-15351293D01*
X12382682Y-15351293D02*
X12382682Y-15389388D01*
X12382682Y-15389388D02*
X12392206Y-15408436D01*
X12392206Y-15408436D02*
X12401729Y-15417960D01*
X12401729Y-15417960D02*
X12420777Y-15427484D01*
X12420777Y-15427484D02*
X12458872Y-15427484D01*
X12458872Y-15427484D02*
X12477920Y-15417960D01*
X12477920Y-15417960D02*
X12487444Y-15408436D01*
X12487444Y-15408436D02*
X12496967Y-15389388D01*
X12496967Y-15389388D02*
X12496967Y-15351293D01*
X12496967Y-15351293D02*
X12487444Y-15332246D01*
X12487444Y-15332246D02*
X12477920Y-15322722D01*
X12477920Y-15322722D02*
X12458872Y-15313198D01*
X12668396Y-15294150D02*
X12668396Y-15427484D01*
X12620777Y-15217960D02*
X12573158Y-15360817D01*
X12573158Y-15360817D02*
X12696967Y-15360817D01*
X12763634Y-15227484D02*
X12763634Y-15265579D01*
X12839825Y-15227484D02*
X12839825Y-15265579D01*
X13135063Y-15503674D02*
X13125539Y-15494150D01*
X13125539Y-15494150D02*
X13106491Y-15465579D01*
X13106491Y-15465579D02*
X13096968Y-15446531D01*
X13096968Y-15446531D02*
X13087444Y-15417960D01*
X13087444Y-15417960D02*
X13077920Y-15370341D01*
X13077920Y-15370341D02*
X13077920Y-15332246D01*
X13077920Y-15332246D02*
X13087444Y-15284627D01*
X13087444Y-15284627D02*
X13096968Y-15256055D01*
X13096968Y-15256055D02*
X13106491Y-15237008D01*
X13106491Y-15237008D02*
X13125539Y-15208436D01*
X13125539Y-15208436D02*
X13135063Y-15198912D01*
X13201729Y-15246531D02*
X13211253Y-15237008D01*
X13211253Y-15237008D02*
X13230301Y-15227484D01*
X13230301Y-15227484D02*
X13277920Y-15227484D01*
X13277920Y-15227484D02*
X13296968Y-15237008D01*
X13296968Y-15237008D02*
X13306491Y-15246531D01*
X13306491Y-15246531D02*
X13316015Y-15265579D01*
X13316015Y-15265579D02*
X13316015Y-15284627D01*
X13316015Y-15284627D02*
X13306491Y-15313198D01*
X13306491Y-15313198D02*
X13192206Y-15427484D01*
X13192206Y-15427484D02*
X13316015Y-15427484D01*
X13554110Y-15427484D02*
X13554110Y-15227484D01*
X13639825Y-15427484D02*
X13639825Y-15322722D01*
X13639825Y-15322722D02*
X13630301Y-15303674D01*
X13630301Y-15303674D02*
X13611253Y-15294150D01*
X13611253Y-15294150D02*
X13582682Y-15294150D01*
X13582682Y-15294150D02*
X13563634Y-15303674D01*
X13563634Y-15303674D02*
X13554110Y-15313198D01*
X13763634Y-15427484D02*
X13744587Y-15417960D01*
X13744587Y-15417960D02*
X13735063Y-15408436D01*
X13735063Y-15408436D02*
X13725539Y-15389388D01*
X13725539Y-15389388D02*
X13725539Y-15332246D01*
X13725539Y-15332246D02*
X13735063Y-15313198D01*
X13735063Y-15313198D02*
X13744587Y-15303674D01*
X13744587Y-15303674D02*
X13763634Y-15294150D01*
X13763634Y-15294150D02*
X13792206Y-15294150D01*
X13792206Y-15294150D02*
X13811253Y-15303674D01*
X13811253Y-15303674D02*
X13820777Y-15313198D01*
X13820777Y-15313198D02*
X13830301Y-15332246D01*
X13830301Y-15332246D02*
X13830301Y-15389388D01*
X13830301Y-15389388D02*
X13820777Y-15408436D01*
X13820777Y-15408436D02*
X13811253Y-15417960D01*
X13811253Y-15417960D02*
X13792206Y-15427484D01*
X13792206Y-15427484D02*
X13763634Y-15427484D01*
X13944587Y-15427484D02*
X13925539Y-15417960D01*
X13925539Y-15417960D02*
X13916015Y-15398912D01*
X13916015Y-15398912D02*
X13916015Y-15227484D01*
X14096968Y-15417960D02*
X14077920Y-15427484D01*
X14077920Y-15427484D02*
X14039825Y-15427484D01*
X14039825Y-15427484D02*
X14020777Y-15417960D01*
X14020777Y-15417960D02*
X14011253Y-15398912D01*
X14011253Y-15398912D02*
X14011253Y-15322722D01*
X14011253Y-15322722D02*
X14020777Y-15303674D01*
X14020777Y-15303674D02*
X14039825Y-15294150D01*
X14039825Y-15294150D02*
X14077920Y-15294150D01*
X14077920Y-15294150D02*
X14096968Y-15303674D01*
X14096968Y-15303674D02*
X14106491Y-15322722D01*
X14106491Y-15322722D02*
X14106491Y-15341769D01*
X14106491Y-15341769D02*
X14011253Y-15360817D01*
X14182682Y-15417960D02*
X14201730Y-15427484D01*
X14201730Y-15427484D02*
X14239825Y-15427484D01*
X14239825Y-15427484D02*
X14258872Y-15417960D01*
X14258872Y-15417960D02*
X14268396Y-15398912D01*
X14268396Y-15398912D02*
X14268396Y-15389388D01*
X14268396Y-15389388D02*
X14258872Y-15370341D01*
X14258872Y-15370341D02*
X14239825Y-15360817D01*
X14239825Y-15360817D02*
X14211253Y-15360817D01*
X14211253Y-15360817D02*
X14192206Y-15351293D01*
X14192206Y-15351293D02*
X14182682Y-15332246D01*
X14182682Y-15332246D02*
X14182682Y-15322722D01*
X14182682Y-15322722D02*
X14192206Y-15303674D01*
X14192206Y-15303674D02*
X14211253Y-15294150D01*
X14211253Y-15294150D02*
X14239825Y-15294150D01*
X14239825Y-15294150D02*
X14258872Y-15303674D01*
X14335063Y-15503674D02*
X14344587Y-15494150D01*
X14344587Y-15494150D02*
X14363634Y-15465579D01*
X14363634Y-15465579D02*
X14373158Y-15446531D01*
X14373158Y-15446531D02*
X14382682Y-15417960D01*
X14382682Y-15417960D02*
X14392206Y-15370341D01*
X14392206Y-15370341D02*
X14392206Y-15332246D01*
X14392206Y-15332246D02*
X14382682Y-15284627D01*
X14382682Y-15284627D02*
X14373158Y-15256055D01*
X14373158Y-15256055D02*
X14363634Y-15237008D01*
X14363634Y-15237008D02*
X14344587Y-15208436D01*
X14344587Y-15208436D02*
X14335063Y-15198912D01*
X9360000Y-15556000D02*
X9560000Y-15756000D01*
X9560000Y-15556000D02*
X9360000Y-15756000D01*
X9560000Y-15656000D02*
G75*
G02*
X9360000Y-15656000I-100000J0D01*
G01*
X9360000Y-15656000D02*
G75*
G02*
X9560000Y-15656000I100000J0D01*
G01*
X9801729Y-15547484D02*
X9925539Y-15547484D01*
X9925539Y-15547484D02*
X9858872Y-15623674D01*
X9858872Y-15623674D02*
X9887444Y-15623674D01*
X9887444Y-15623674D02*
X9906491Y-15633198D01*
X9906491Y-15633198D02*
X9916015Y-15642722D01*
X9916015Y-15642722D02*
X9925539Y-15661769D01*
X9925539Y-15661769D02*
X9925539Y-15709388D01*
X9925539Y-15709388D02*
X9916015Y-15728436D01*
X9916015Y-15728436D02*
X9906491Y-15737960D01*
X9906491Y-15737960D02*
X9887444Y-15747484D01*
X9887444Y-15747484D02*
X9830301Y-15747484D01*
X9830301Y-15747484D02*
X9811253Y-15737960D01*
X9811253Y-15737960D02*
X9801729Y-15728436D01*
X10011253Y-15728436D02*
X10020777Y-15737960D01*
X10020777Y-15737960D02*
X10011253Y-15747484D01*
X10011253Y-15747484D02*
X10001729Y-15737960D01*
X10001729Y-15737960D02*
X10011253Y-15728436D01*
X10011253Y-15728436D02*
X10011253Y-15747484D01*
X10096967Y-15566531D02*
X10106491Y-15557008D01*
X10106491Y-15557008D02*
X10125539Y-15547484D01*
X10125539Y-15547484D02*
X10173158Y-15547484D01*
X10173158Y-15547484D02*
X10192205Y-15557008D01*
X10192205Y-15557008D02*
X10201729Y-15566531D01*
X10201729Y-15566531D02*
X10211253Y-15585579D01*
X10211253Y-15585579D02*
X10211253Y-15604627D01*
X10211253Y-15604627D02*
X10201729Y-15633198D01*
X10201729Y-15633198D02*
X10087444Y-15747484D01*
X10087444Y-15747484D02*
X10211253Y-15747484D01*
X10335063Y-15547484D02*
X10354110Y-15547484D01*
X10354110Y-15547484D02*
X10373158Y-15557008D01*
X10373158Y-15557008D02*
X10382682Y-15566531D01*
X10382682Y-15566531D02*
X10392205Y-15585579D01*
X10392205Y-15585579D02*
X10401729Y-15623674D01*
X10401729Y-15623674D02*
X10401729Y-15671293D01*
X10401729Y-15671293D02*
X10392205Y-15709388D01*
X10392205Y-15709388D02*
X10382682Y-15728436D01*
X10382682Y-15728436D02*
X10373158Y-15737960D01*
X10373158Y-15737960D02*
X10354110Y-15747484D01*
X10354110Y-15747484D02*
X10335063Y-15747484D01*
X10335063Y-15747484D02*
X10316015Y-15737960D01*
X10316015Y-15737960D02*
X10306491Y-15728436D01*
X10306491Y-15728436D02*
X10296967Y-15709388D01*
X10296967Y-15709388D02*
X10287444Y-15671293D01*
X10287444Y-15671293D02*
X10287444Y-15623674D01*
X10287444Y-15623674D02*
X10296967Y-15585579D01*
X10296967Y-15585579D02*
X10306491Y-15566531D01*
X10306491Y-15566531D02*
X10316015Y-15557008D01*
X10316015Y-15557008D02*
X10335063Y-15547484D01*
X10525539Y-15547484D02*
X10544586Y-15547484D01*
X10544586Y-15547484D02*
X10563634Y-15557008D01*
X10563634Y-15557008D02*
X10573158Y-15566531D01*
X10573158Y-15566531D02*
X10582682Y-15585579D01*
X10582682Y-15585579D02*
X10592205Y-15623674D01*
X10592205Y-15623674D02*
X10592205Y-15671293D01*
X10592205Y-15671293D02*
X10582682Y-15709388D01*
X10582682Y-15709388D02*
X10573158Y-15728436D01*
X10573158Y-15728436D02*
X10563634Y-15737960D01*
X10563634Y-15737960D02*
X10544586Y-15747484D01*
X10544586Y-15747484D02*
X10525539Y-15747484D01*
X10525539Y-15747484D02*
X10506491Y-15737960D01*
X10506491Y-15737960D02*
X10496967Y-15728436D01*
X10496967Y-15728436D02*
X10487444Y-15709388D01*
X10487444Y-15709388D02*
X10477920Y-15671293D01*
X10477920Y-15671293D02*
X10477920Y-15623674D01*
X10477920Y-15623674D02*
X10487444Y-15585579D01*
X10487444Y-15585579D02*
X10496967Y-15566531D01*
X10496967Y-15566531D02*
X10506491Y-15557008D01*
X10506491Y-15557008D02*
X10525539Y-15547484D01*
X10677920Y-15747484D02*
X10677920Y-15614150D01*
X10677920Y-15633198D02*
X10687444Y-15623674D01*
X10687444Y-15623674D02*
X10706491Y-15614150D01*
X10706491Y-15614150D02*
X10735063Y-15614150D01*
X10735063Y-15614150D02*
X10754110Y-15623674D01*
X10754110Y-15623674D02*
X10763634Y-15642722D01*
X10763634Y-15642722D02*
X10763634Y-15747484D01*
X10763634Y-15642722D02*
X10773158Y-15623674D01*
X10773158Y-15623674D02*
X10792205Y-15614150D01*
X10792205Y-15614150D02*
X10820777Y-15614150D01*
X10820777Y-15614150D02*
X10839825Y-15623674D01*
X10839825Y-15623674D02*
X10849348Y-15642722D01*
X10849348Y-15642722D02*
X10849348Y-15747484D01*
X10944586Y-15747484D02*
X10944586Y-15614150D01*
X10944586Y-15633198D02*
X10954110Y-15623674D01*
X10954110Y-15623674D02*
X10973158Y-15614150D01*
X10973158Y-15614150D02*
X11001729Y-15614150D01*
X11001729Y-15614150D02*
X11020777Y-15623674D01*
X11020777Y-15623674D02*
X11030301Y-15642722D01*
X11030301Y-15642722D02*
X11030301Y-15747484D01*
X11030301Y-15642722D02*
X11039825Y-15623674D01*
X11039825Y-15623674D02*
X11058872Y-15614150D01*
X11058872Y-15614150D02*
X11087444Y-15614150D01*
X11087444Y-15614150D02*
X11106491Y-15623674D01*
X11106491Y-15623674D02*
X11116015Y-15642722D01*
X11116015Y-15642722D02*
X11116015Y-15747484D01*
X11506491Y-15537960D02*
X11335063Y-15795103D01*
X11763634Y-15547484D02*
X11782682Y-15547484D01*
X11782682Y-15547484D02*
X11801729Y-15557008D01*
X11801729Y-15557008D02*
X11811253Y-15566531D01*
X11811253Y-15566531D02*
X11820777Y-15585579D01*
X11820777Y-15585579D02*
X11830301Y-15623674D01*
X11830301Y-15623674D02*
X11830301Y-15671293D01*
X11830301Y-15671293D02*
X11820777Y-15709388D01*
X11820777Y-15709388D02*
X11811253Y-15728436D01*
X11811253Y-15728436D02*
X11801729Y-15737960D01*
X11801729Y-15737960D02*
X11782682Y-15747484D01*
X11782682Y-15747484D02*
X11763634Y-15747484D01*
X11763634Y-15747484D02*
X11744586Y-15737960D01*
X11744586Y-15737960D02*
X11735063Y-15728436D01*
X11735063Y-15728436D02*
X11725539Y-15709388D01*
X11725539Y-15709388D02*
X11716015Y-15671293D01*
X11716015Y-15671293D02*
X11716015Y-15623674D01*
X11716015Y-15623674D02*
X11725539Y-15585579D01*
X11725539Y-15585579D02*
X11735063Y-15566531D01*
X11735063Y-15566531D02*
X11744586Y-15557008D01*
X11744586Y-15557008D02*
X11763634Y-15547484D01*
X11916015Y-15728436D02*
X11925539Y-15737960D01*
X11925539Y-15737960D02*
X11916015Y-15747484D01*
X11916015Y-15747484D02*
X11906491Y-15737960D01*
X11906491Y-15737960D02*
X11916015Y-15728436D01*
X11916015Y-15728436D02*
X11916015Y-15747484D01*
X12116015Y-15747484D02*
X12001729Y-15747484D01*
X12058872Y-15747484D02*
X12058872Y-15547484D01*
X12058872Y-15547484D02*
X12039825Y-15576055D01*
X12039825Y-15576055D02*
X12020777Y-15595103D01*
X12020777Y-15595103D02*
X12001729Y-15604627D01*
X12192206Y-15566531D02*
X12201729Y-15557008D01*
X12201729Y-15557008D02*
X12220777Y-15547484D01*
X12220777Y-15547484D02*
X12268396Y-15547484D01*
X12268396Y-15547484D02*
X12287444Y-15557008D01*
X12287444Y-15557008D02*
X12296967Y-15566531D01*
X12296967Y-15566531D02*
X12306491Y-15585579D01*
X12306491Y-15585579D02*
X12306491Y-15604627D01*
X12306491Y-15604627D02*
X12296967Y-15633198D01*
X12296967Y-15633198D02*
X12182682Y-15747484D01*
X12182682Y-15747484D02*
X12306491Y-15747484D01*
X12477920Y-15547484D02*
X12439825Y-15547484D01*
X12439825Y-15547484D02*
X12420777Y-15557008D01*
X12420777Y-15557008D02*
X12411253Y-15566531D01*
X12411253Y-15566531D02*
X12392206Y-15595103D01*
X12392206Y-15595103D02*
X12382682Y-15633198D01*
X12382682Y-15633198D02*
X12382682Y-15709388D01*
X12382682Y-15709388D02*
X12392206Y-15728436D01*
X12392206Y-15728436D02*
X12401729Y-15737960D01*
X12401729Y-15737960D02*
X12420777Y-15747484D01*
X12420777Y-15747484D02*
X12458872Y-15747484D01*
X12458872Y-15747484D02*
X12477920Y-15737960D01*
X12477920Y-15737960D02*
X12487444Y-15728436D01*
X12487444Y-15728436D02*
X12496967Y-15709388D01*
X12496967Y-15709388D02*
X12496967Y-15661769D01*
X12496967Y-15661769D02*
X12487444Y-15642722D01*
X12487444Y-15642722D02*
X12477920Y-15633198D01*
X12477920Y-15633198D02*
X12458872Y-15623674D01*
X12458872Y-15623674D02*
X12420777Y-15623674D01*
X12420777Y-15623674D02*
X12401729Y-15633198D01*
X12401729Y-15633198D02*
X12392206Y-15642722D01*
X12392206Y-15642722D02*
X12382682Y-15661769D01*
X12620777Y-15547484D02*
X12639825Y-15547484D01*
X12639825Y-15547484D02*
X12658872Y-15557008D01*
X12658872Y-15557008D02*
X12668396Y-15566531D01*
X12668396Y-15566531D02*
X12677920Y-15585579D01*
X12677920Y-15585579D02*
X12687444Y-15623674D01*
X12687444Y-15623674D02*
X12687444Y-15671293D01*
X12687444Y-15671293D02*
X12677920Y-15709388D01*
X12677920Y-15709388D02*
X12668396Y-15728436D01*
X12668396Y-15728436D02*
X12658872Y-15737960D01*
X12658872Y-15737960D02*
X12639825Y-15747484D01*
X12639825Y-15747484D02*
X12620777Y-15747484D01*
X12620777Y-15747484D02*
X12601729Y-15737960D01*
X12601729Y-15737960D02*
X12592206Y-15728436D01*
X12592206Y-15728436D02*
X12582682Y-15709388D01*
X12582682Y-15709388D02*
X12573158Y-15671293D01*
X12573158Y-15671293D02*
X12573158Y-15623674D01*
X12573158Y-15623674D02*
X12582682Y-15585579D01*
X12582682Y-15585579D02*
X12592206Y-15566531D01*
X12592206Y-15566531D02*
X12601729Y-15557008D01*
X12601729Y-15557008D02*
X12620777Y-15547484D01*
X12763634Y-15547484D02*
X12763634Y-15585579D01*
X12839825Y-15547484D02*
X12839825Y-15585579D01*
X13135063Y-15823674D02*
X13125539Y-15814150D01*
X13125539Y-15814150D02*
X13106491Y-15785579D01*
X13106491Y-15785579D02*
X13096968Y-15766531D01*
X13096968Y-15766531D02*
X13087444Y-15737960D01*
X13087444Y-15737960D02*
X13077920Y-15690341D01*
X13077920Y-15690341D02*
X13077920Y-15652246D01*
X13077920Y-15652246D02*
X13087444Y-15604627D01*
X13087444Y-15604627D02*
X13096968Y-15576055D01*
X13096968Y-15576055D02*
X13106491Y-15557008D01*
X13106491Y-15557008D02*
X13125539Y-15528436D01*
X13125539Y-15528436D02*
X13135063Y-15518912D01*
X13192206Y-15547484D02*
X13316015Y-15547484D01*
X13316015Y-15547484D02*
X13249348Y-15623674D01*
X13249348Y-15623674D02*
X13277920Y-15623674D01*
X13277920Y-15623674D02*
X13296968Y-15633198D01*
X13296968Y-15633198D02*
X13306491Y-15642722D01*
X13306491Y-15642722D02*
X13316015Y-15661769D01*
X13316015Y-15661769D02*
X13316015Y-15709388D01*
X13316015Y-15709388D02*
X13306491Y-15728436D01*
X13306491Y-15728436D02*
X13296968Y-15737960D01*
X13296968Y-15737960D02*
X13277920Y-15747484D01*
X13277920Y-15747484D02*
X13220777Y-15747484D01*
X13220777Y-15747484D02*
X13201729Y-15737960D01*
X13201729Y-15737960D02*
X13192206Y-15728436D01*
X13554110Y-15747484D02*
X13554110Y-15547484D01*
X13639825Y-15747484D02*
X13639825Y-15642722D01*
X13639825Y-15642722D02*
X13630301Y-15623674D01*
X13630301Y-15623674D02*
X13611253Y-15614150D01*
X13611253Y-15614150D02*
X13582682Y-15614150D01*
X13582682Y-15614150D02*
X13563634Y-15623674D01*
X13563634Y-15623674D02*
X13554110Y-15633198D01*
X13763634Y-15747484D02*
X13744587Y-15737960D01*
X13744587Y-15737960D02*
X13735063Y-15728436D01*
X13735063Y-15728436D02*
X13725539Y-15709388D01*
X13725539Y-15709388D02*
X13725539Y-15652246D01*
X13725539Y-15652246D02*
X13735063Y-15633198D01*
X13735063Y-15633198D02*
X13744587Y-15623674D01*
X13744587Y-15623674D02*
X13763634Y-15614150D01*
X13763634Y-15614150D02*
X13792206Y-15614150D01*
X13792206Y-15614150D02*
X13811253Y-15623674D01*
X13811253Y-15623674D02*
X13820777Y-15633198D01*
X13820777Y-15633198D02*
X13830301Y-15652246D01*
X13830301Y-15652246D02*
X13830301Y-15709388D01*
X13830301Y-15709388D02*
X13820777Y-15728436D01*
X13820777Y-15728436D02*
X13811253Y-15737960D01*
X13811253Y-15737960D02*
X13792206Y-15747484D01*
X13792206Y-15747484D02*
X13763634Y-15747484D01*
X13944587Y-15747484D02*
X13925539Y-15737960D01*
X13925539Y-15737960D02*
X13916015Y-15718912D01*
X13916015Y-15718912D02*
X13916015Y-15547484D01*
X14096968Y-15737960D02*
X14077920Y-15747484D01*
X14077920Y-15747484D02*
X14039825Y-15747484D01*
X14039825Y-15747484D02*
X14020777Y-15737960D01*
X14020777Y-15737960D02*
X14011253Y-15718912D01*
X14011253Y-15718912D02*
X14011253Y-15642722D01*
X14011253Y-15642722D02*
X14020777Y-15623674D01*
X14020777Y-15623674D02*
X14039825Y-15614150D01*
X14039825Y-15614150D02*
X14077920Y-15614150D01*
X14077920Y-15614150D02*
X14096968Y-15623674D01*
X14096968Y-15623674D02*
X14106491Y-15642722D01*
X14106491Y-15642722D02*
X14106491Y-15661769D01*
X14106491Y-15661769D02*
X14011253Y-15680817D01*
X14182682Y-15737960D02*
X14201730Y-15747484D01*
X14201730Y-15747484D02*
X14239825Y-15747484D01*
X14239825Y-15747484D02*
X14258872Y-15737960D01*
X14258872Y-15737960D02*
X14268396Y-15718912D01*
X14268396Y-15718912D02*
X14268396Y-15709388D01*
X14268396Y-15709388D02*
X14258872Y-15690341D01*
X14258872Y-15690341D02*
X14239825Y-15680817D01*
X14239825Y-15680817D02*
X14211253Y-15680817D01*
X14211253Y-15680817D02*
X14192206Y-15671293D01*
X14192206Y-15671293D02*
X14182682Y-15652246D01*
X14182682Y-15652246D02*
X14182682Y-15642722D01*
X14182682Y-15642722D02*
X14192206Y-15623674D01*
X14192206Y-15623674D02*
X14211253Y-15614150D01*
X14211253Y-15614150D02*
X14239825Y-15614150D01*
X14239825Y-15614150D02*
X14258872Y-15623674D01*
X14335063Y-15823674D02*
X14344587Y-15814150D01*
X14344587Y-15814150D02*
X14363634Y-15785579D01*
X14363634Y-15785579D02*
X14373158Y-15766531D01*
X14373158Y-15766531D02*
X14382682Y-15737960D01*
X14382682Y-15737960D02*
X14392206Y-15690341D01*
X14392206Y-15690341D02*
X14392206Y-15652246D01*
X14392206Y-15652246D02*
X14382682Y-15604627D01*
X14382682Y-15604627D02*
X14373158Y-15576055D01*
X14373158Y-15576055D02*
X14363634Y-15557008D01*
X14363634Y-15557008D02*
X14344587Y-15528436D01*
X14344587Y-15528436D02*
X14335063Y-15518912D01*
X14696968Y-15823674D02*
X14687444Y-15814150D01*
X14687444Y-15814150D02*
X14668396Y-15785579D01*
X14668396Y-15785579D02*
X14658872Y-15766531D01*
X14658872Y-15766531D02*
X14649349Y-15737960D01*
X14649349Y-15737960D02*
X14639825Y-15690341D01*
X14639825Y-15690341D02*
X14639825Y-15652246D01*
X14639825Y-15652246D02*
X14649349Y-15604627D01*
X14649349Y-15604627D02*
X14658872Y-15576055D01*
X14658872Y-15576055D02*
X14668396Y-15557008D01*
X14668396Y-15557008D02*
X14687444Y-15528436D01*
X14687444Y-15528436D02*
X14696968Y-15518912D01*
X14773158Y-15614150D02*
X14773158Y-15747484D01*
X14773158Y-15633198D02*
X14782682Y-15623674D01*
X14782682Y-15623674D02*
X14801730Y-15614150D01*
X14801730Y-15614150D02*
X14830301Y-15614150D01*
X14830301Y-15614150D02*
X14849349Y-15623674D01*
X14849349Y-15623674D02*
X14858872Y-15642722D01*
X14858872Y-15642722D02*
X14858872Y-15747484D01*
X14982682Y-15747484D02*
X14963634Y-15737960D01*
X14963634Y-15737960D02*
X14954111Y-15728436D01*
X14954111Y-15728436D02*
X14944587Y-15709388D01*
X14944587Y-15709388D02*
X14944587Y-15652246D01*
X14944587Y-15652246D02*
X14954111Y-15633198D01*
X14954111Y-15633198D02*
X14963634Y-15623674D01*
X14963634Y-15623674D02*
X14982682Y-15614150D01*
X14982682Y-15614150D02*
X15011253Y-15614150D01*
X15011253Y-15614150D02*
X15030301Y-15623674D01*
X15030301Y-15623674D02*
X15039825Y-15633198D01*
X15039825Y-15633198D02*
X15049349Y-15652246D01*
X15049349Y-15652246D02*
X15049349Y-15709388D01*
X15049349Y-15709388D02*
X15039825Y-15728436D01*
X15039825Y-15728436D02*
X15030301Y-15737960D01*
X15030301Y-15737960D02*
X15011253Y-15747484D01*
X15011253Y-15747484D02*
X14982682Y-15747484D01*
X15106492Y-15614150D02*
X15182682Y-15614150D01*
X15135063Y-15547484D02*
X15135063Y-15718912D01*
X15135063Y-15718912D02*
X15144587Y-15737960D01*
X15144587Y-15737960D02*
X15163634Y-15747484D01*
X15163634Y-15747484D02*
X15182682Y-15747484D01*
X15401730Y-15614150D02*
X15401730Y-15814150D01*
X15401730Y-15623674D02*
X15420777Y-15614150D01*
X15420777Y-15614150D02*
X15458873Y-15614150D01*
X15458873Y-15614150D02*
X15477920Y-15623674D01*
X15477920Y-15623674D02*
X15487444Y-15633198D01*
X15487444Y-15633198D02*
X15496968Y-15652246D01*
X15496968Y-15652246D02*
X15496968Y-15709388D01*
X15496968Y-15709388D02*
X15487444Y-15728436D01*
X15487444Y-15728436D02*
X15477920Y-15737960D01*
X15477920Y-15737960D02*
X15458873Y-15747484D01*
X15458873Y-15747484D02*
X15420777Y-15747484D01*
X15420777Y-15747484D02*
X15401730Y-15737960D01*
X15611253Y-15747484D02*
X15592206Y-15737960D01*
X15592206Y-15737960D02*
X15582682Y-15718912D01*
X15582682Y-15718912D02*
X15582682Y-15547484D01*
X15773158Y-15747484D02*
X15773158Y-15642722D01*
X15773158Y-15642722D02*
X15763634Y-15623674D01*
X15763634Y-15623674D02*
X15744587Y-15614150D01*
X15744587Y-15614150D02*
X15706492Y-15614150D01*
X15706492Y-15614150D02*
X15687444Y-15623674D01*
X15773158Y-15737960D02*
X15754111Y-15747484D01*
X15754111Y-15747484D02*
X15706492Y-15747484D01*
X15706492Y-15747484D02*
X15687444Y-15737960D01*
X15687444Y-15737960D02*
X15677920Y-15718912D01*
X15677920Y-15718912D02*
X15677920Y-15699865D01*
X15677920Y-15699865D02*
X15687444Y-15680817D01*
X15687444Y-15680817D02*
X15706492Y-15671293D01*
X15706492Y-15671293D02*
X15754111Y-15671293D01*
X15754111Y-15671293D02*
X15773158Y-15661769D01*
X15839825Y-15614150D02*
X15916015Y-15614150D01*
X15868396Y-15547484D02*
X15868396Y-15718912D01*
X15868396Y-15718912D02*
X15877920Y-15737960D01*
X15877920Y-15737960D02*
X15896968Y-15747484D01*
X15896968Y-15747484D02*
X15916015Y-15747484D01*
X16058873Y-15737960D02*
X16039825Y-15747484D01*
X16039825Y-15747484D02*
X16001730Y-15747484D01*
X16001730Y-15747484D02*
X15982682Y-15737960D01*
X15982682Y-15737960D02*
X15973158Y-15718912D01*
X15973158Y-15718912D02*
X15973158Y-15642722D01*
X15973158Y-15642722D02*
X15982682Y-15623674D01*
X15982682Y-15623674D02*
X16001730Y-15614150D01*
X16001730Y-15614150D02*
X16039825Y-15614150D01*
X16039825Y-15614150D02*
X16058873Y-15623674D01*
X16058873Y-15623674D02*
X16068396Y-15642722D01*
X16068396Y-15642722D02*
X16068396Y-15661769D01*
X16068396Y-15661769D02*
X15973158Y-15680817D01*
X16239825Y-15747484D02*
X16239825Y-15547484D01*
X16239825Y-15737960D02*
X16220777Y-15747484D01*
X16220777Y-15747484D02*
X16182682Y-15747484D01*
X16182682Y-15747484D02*
X16163634Y-15737960D01*
X16163634Y-15737960D02*
X16154111Y-15728436D01*
X16154111Y-15728436D02*
X16144587Y-15709388D01*
X16144587Y-15709388D02*
X16144587Y-15652246D01*
X16144587Y-15652246D02*
X16154111Y-15633198D01*
X16154111Y-15633198D02*
X16163634Y-15623674D01*
X16163634Y-15623674D02*
X16182682Y-15614150D01*
X16182682Y-15614150D02*
X16220777Y-15614150D01*
X16220777Y-15614150D02*
X16239825Y-15623674D01*
X16316015Y-15823674D02*
X16325539Y-15814150D01*
X16325539Y-15814150D02*
X16344587Y-15785579D01*
X16344587Y-15785579D02*
X16354111Y-15766531D01*
X16354111Y-15766531D02*
X16363634Y-15737960D01*
X16363634Y-15737960D02*
X16373158Y-15690341D01*
X16373158Y-15690341D02*
X16373158Y-15652246D01*
X16373158Y-15652246D02*
X16363634Y-15604627D01*
X16363634Y-15604627D02*
X16354111Y-15576055D01*
X16354111Y-15576055D02*
X16344587Y-15557008D01*
X16344587Y-15557008D02*
X16325539Y-15528436D01*
X16325539Y-15528436D02*
X16316015Y-15518912D01*
M02*
