M48
; DRILL file {KiCad 9.0.6} date 2025-12-15T19:17:13+0000
; FORMAT={-:-/ absolute / metric / decimal}
; #@! TF.CreationDate,2025-12-15T19:17:13+00:00
; #@! TF.GenerationSoftware,Kicad,Pcbnew,9.0.6
; #@! TF.FileFunction,MixedPlating,1,2
FMAT,2
METRIC
; #@! TA.AperFunction,Plated,PTH,ViaDrill
T1C0.300
; #@! TA.AperFunction,Plated,PTH,ComponentDrill
T2C0.889
; #@! TA.AperFunction,Plated,PTH,ComponentDrill
T3C1.000
; #@! TA.AperFunction,Plated,PTH,ComponentDrill
T4C1.016
; #@! TA.AperFunction,Plated,PTH,ComponentDrill
T5C2.500
; #@! TA.AperFunction,NonPlated,NPTH,ComponentDrill
T6C3.200
%
G90
G05
T1
X99.27Y-70.9
X104.38Y-59.42
X104.8Y-58.17
X107.58Y-56.75
X122.68Y-72.42
X128.46Y-34.62
X139.39Y-44.46
X141.27Y-44.31
X141.46Y-60.79
X142.45Y-47.26
X148.76Y-44.0
X148.91Y-47.25
X149.52Y-41.55
T2
X137.36Y-32.52
X137.36Y-35.06
X137.36Y-37.6
X137.36Y-40.14
X137.36Y-42.68
X137.36Y-45.22
X137.36Y-47.76
X152.6Y-32.52
X152.6Y-35.06
X152.6Y-37.6
X152.6Y-40.14
X152.6Y-42.68
X152.6Y-45.22
X152.6Y-47.76
T3
X103.547Y-49.99
X106.087Y-49.99
X108.627Y-49.99
X111.167Y-49.99
X113.707Y-49.99
X116.247Y-49.99
X117.44Y-84.39
X117.44Y-86.93
X117.44Y-89.47
X117.44Y-92.01
X118.787Y-49.99
X121.328Y-49.99
X123.867Y-49.99
X155.255Y-60.225
X155.255Y-62.765
X155.255Y-65.305
X155.255Y-67.845
X162.01Y-85.08
X162.01Y-87.62
X162.01Y-90.16
X162.01Y-92.7
X174.8Y-111.47
X174.8Y-114.01
X174.8Y-116.55
X174.8Y-119.09
T4
X101.45Y-63.46
X101.45Y-66.0
X101.45Y-68.54
X101.45Y-71.08
X101.45Y-73.62
X101.45Y-76.16
X111.61Y-63.46
X111.61Y-66.0
X111.61Y-68.54
X111.61Y-71.08
X111.61Y-73.62
X111.61Y-76.16
T5
X103.547Y-32.21
X123.867Y-32.21
T6
X103.96Y-89.09
X167.37Y-36.31
X167.4Y-77.35
M30
