%TF.GenerationSoftware,KiCad,Pcbnew,9.0.6*%
%TF.CreationDate,2025-12-15T19:17:09+00:00*%
%TF.ProjectId,VoltaPCB,566f6c74-6150-4434-922e-6b696361645f,rev?*%
%TF.SameCoordinates,Original*%
%TF.FileFunction,Legend,Bot*%
%TF.FilePolarity,Positive*%
%FSLAX46Y46*%
G04 Gerber Fmt 4.6, Leading zero omitted, Abs format (unit mm)*
G04 Created by KiCad (PCBNEW 9.0.6) date 2025-12-15 19:17:09*
%MOMM*%
%LPD*%
G01*
G04 APERTURE LIST*
%ADD10C,0.000000*%
G04 APERTURE END LIST*
D10*
%TO.C,G\u002A\u002A\u002A*%
G36*
X130304612Y-82593458D02*
G01*
X130395773Y-83013943D01*
X130456860Y-83421530D01*
X130498973Y-83663856D01*
X130440803Y-83765494D01*
X130091812Y-83885143D01*
X129479544Y-83965063D01*
X128659228Y-83995304D01*
X127597612Y-83997746D01*
X128838101Y-83117057D01*
X129065905Y-82958770D01*
X129606980Y-82612696D01*
X130009300Y-82398298D01*
X130198982Y-82356846D01*
X130304612Y-82593458D01*
G37*
G36*
X129635167Y-119692409D02*
G01*
X130068393Y-119846042D01*
X130420525Y-120032511D01*
X130591919Y-120293553D01*
X130456627Y-120630222D01*
X130012385Y-121092920D01*
X129682009Y-121318524D01*
X129345207Y-121330296D01*
X129154814Y-121038959D01*
X129146070Y-120469858D01*
X129169646Y-120307615D01*
X129253536Y-119873274D01*
X129328725Y-119657706D01*
X129360794Y-119645984D01*
X129635167Y-119692409D01*
G37*
G36*
X132739155Y-120537682D02*
G01*
X133044878Y-120610848D01*
X133361177Y-120730298D01*
X133441710Y-120902063D01*
X133360227Y-121205435D01*
X133259968Y-121441627D01*
X132944790Y-121934158D01*
X132575216Y-122307477D01*
X132245825Y-122455493D01*
X132036014Y-122384472D01*
X131718984Y-122131485D01*
X131665858Y-122069105D01*
X131516844Y-121722375D01*
X131587667Y-121242945D01*
X131729955Y-120793532D01*
X131915443Y-120504244D01*
X132215415Y-120441273D01*
X132739155Y-120537682D01*
G37*
G36*
X154510429Y-33555624D02*
G01*
X154964276Y-33604862D01*
X155283104Y-33802470D01*
X155612536Y-34235178D01*
X156214679Y-35253099D01*
X156995669Y-36917262D01*
X157709112Y-38838517D01*
X158338613Y-40959880D01*
X158867780Y-43224369D01*
X159280219Y-45574999D01*
X159559535Y-47954788D01*
X159637363Y-48950396D01*
X159669020Y-49809451D01*
X159630060Y-50474286D01*
X159508574Y-51029739D01*
X159292654Y-51560649D01*
X158970390Y-52151853D01*
X158925537Y-52227526D01*
X158060179Y-53414626D01*
X156951380Y-54546281D01*
X155702183Y-55516410D01*
X155503541Y-55649548D01*
X155165197Y-55883343D01*
X155031408Y-55987201D01*
X155052873Y-55993199D01*
X155310176Y-56006789D01*
X155765206Y-56012215D01*
X156130825Y-56032528D01*
X156581125Y-56191458D01*
X157007730Y-56581577D01*
X157025631Y-56601779D01*
X157511562Y-57378868D01*
X157655180Y-58194870D01*
X157449674Y-59012337D01*
X157082650Y-59572684D01*
X156364162Y-60176717D01*
X155467058Y-60573959D01*
X154469658Y-60743792D01*
X153450285Y-60665595D01*
X152487259Y-60318751D01*
X151642405Y-59865022D01*
X151356134Y-60468295D01*
X151256644Y-60642547D01*
X150848839Y-61139470D01*
X150344686Y-61574115D01*
X150234132Y-61646207D01*
X149385221Y-62004285D01*
X148405166Y-62165356D01*
X147429690Y-62119231D01*
X146594515Y-61855716D01*
X145938608Y-61513442D01*
X145826368Y-62111733D01*
X145591785Y-62672366D01*
X145108175Y-63283870D01*
X144481660Y-63812376D01*
X143812948Y-64155649D01*
X143510026Y-64226209D01*
X142849596Y-64292805D01*
X142149755Y-64286855D01*
X141782794Y-64245969D01*
X140732465Y-63927579D01*
X139900997Y-63329009D01*
X139296277Y-62455323D01*
X139144205Y-62162150D01*
X138907186Y-61785812D01*
X138749426Y-61638591D01*
X138697315Y-61648136D01*
X138367138Y-61752607D01*
X137824427Y-61947822D01*
X137155523Y-62203197D01*
X135713098Y-62767803D01*
X135713098Y-65221625D01*
X135714502Y-65509303D01*
X135752879Y-66724564D01*
X135849019Y-67975650D01*
X136010016Y-69295962D01*
X136242964Y-70718902D01*
X136554958Y-72277872D01*
X136953090Y-74006275D01*
X137276242Y-75276374D01*
X137444456Y-75937513D01*
X138036149Y-78104987D01*
X138735263Y-80542100D01*
X139548893Y-83282253D01*
X140115861Y-85197828D01*
X140808606Y-87658060D01*
X141388307Y-89892311D01*
X141867975Y-91962129D01*
X142260620Y-93929061D01*
X142579254Y-95854657D01*
X142836886Y-97800463D01*
X143046528Y-99828028D01*
X143096743Y-100441778D01*
X143180821Y-101954399D01*
X143219983Y-103520733D01*
X143215155Y-105058942D01*
X143167268Y-106487190D01*
X143077249Y-107723639D01*
X142946027Y-108686453D01*
X142705101Y-109793564D01*
X141954938Y-112294489D01*
X140893084Y-114945114D01*
X139524180Y-117736394D01*
X137852866Y-120659283D01*
X135883784Y-123704735D01*
X133621572Y-126863703D01*
X133298014Y-127289456D01*
X132666546Y-128096843D01*
X131959179Y-128978724D01*
X131213239Y-129890790D01*
X130466050Y-130788734D01*
X129754939Y-131628247D01*
X129117232Y-132365020D01*
X128590253Y-132954746D01*
X128211329Y-133353116D01*
X128017786Y-133515821D01*
X127975028Y-133459880D01*
X127918897Y-133093487D01*
X127877340Y-132406610D01*
X127851539Y-131421884D01*
X127842676Y-130161948D01*
X127840304Y-129464494D01*
X127821550Y-128296347D01*
X127784714Y-127445348D01*
X127730514Y-126924910D01*
X127659671Y-126748450D01*
X127464816Y-126820955D01*
X127002400Y-127035383D01*
X126328320Y-127365664D01*
X125496077Y-127785562D01*
X124559172Y-128268843D01*
X123651505Y-128734162D01*
X122830055Y-129140125D01*
X122169837Y-129450298D01*
X121722334Y-129640510D01*
X121539034Y-129686593D01*
X121531840Y-129655551D01*
X121616669Y-129383393D01*
X121837507Y-128908213D01*
X122158663Y-128309345D01*
X122396246Y-127874422D01*
X122837568Y-127017182D01*
X123307804Y-126057867D01*
X123738498Y-125134068D01*
X123917367Y-124732567D01*
X125225213Y-121424623D01*
X125304247Y-121170556D01*
X127663803Y-121170556D01*
X127665158Y-121243270D01*
X127836098Y-121904403D01*
X128259416Y-122345473D01*
X128886734Y-122535753D01*
X129669674Y-122444518D01*
X129908518Y-122385885D01*
X130236688Y-122404010D01*
X130477693Y-122639127D01*
X130907302Y-123053876D01*
X131613593Y-123399133D01*
X132403191Y-123528732D01*
X132562110Y-123521328D01*
X133180549Y-123317392D01*
X133732238Y-122812913D01*
X134251289Y-121979291D01*
X134305602Y-121869467D01*
X134566698Y-121221547D01*
X134728011Y-120611585D01*
X134770441Y-120134068D01*
X134674891Y-119883482D01*
X134481024Y-119802059D01*
X133988028Y-119638324D01*
X133289026Y-119425803D01*
X132462111Y-119186233D01*
X131585376Y-118941351D01*
X130736913Y-118712893D01*
X129994814Y-118522597D01*
X129437173Y-118392199D01*
X129142082Y-118343437D01*
X128958206Y-118403367D01*
X128617524Y-118728693D01*
X128270754Y-119257937D01*
X127964884Y-119901238D01*
X127746904Y-120568732D01*
X127663803Y-121170556D01*
X125304247Y-121170556D01*
X126272463Y-118058056D01*
X126641883Y-116453032D01*
X129452535Y-116453032D01*
X129460709Y-116562212D01*
X129631573Y-116907442D01*
X130051348Y-117201773D01*
X130756283Y-117464858D01*
X131782626Y-117716349D01*
X132980814Y-117909243D01*
X134148283Y-117964821D01*
X135126433Y-117864147D01*
X135868753Y-117612354D01*
X136328732Y-117214575D01*
X136505104Y-116897173D01*
X136691766Y-116106801D01*
X136534606Y-115254150D01*
X136335544Y-114773357D01*
X135966026Y-114209252D01*
X135478630Y-113839823D01*
X135087687Y-113677355D01*
X134441915Y-113463144D01*
X133648667Y-113228871D01*
X132805424Y-113000852D01*
X132009665Y-112805402D01*
X131358870Y-112668835D01*
X130950518Y-112617464D01*
X130687174Y-112634777D01*
X130237118Y-112801800D01*
X130060587Y-113091405D01*
X130150355Y-113435829D01*
X130499195Y-113767308D01*
X131099881Y-114018078D01*
X131186354Y-114040505D01*
X131783314Y-114195299D01*
X132553376Y-114394953D01*
X133352367Y-114602085D01*
X134117578Y-114826114D01*
X134884706Y-115148162D01*
X135299282Y-115482410D01*
X135364291Y-115831611D01*
X135082717Y-116198518D01*
X135043978Y-116224655D01*
X134643951Y-116322833D01*
X133980629Y-116346146D01*
X133126455Y-116298186D01*
X132153872Y-116182545D01*
X131135321Y-116002815D01*
X131108135Y-115997216D01*
X130315203Y-115873635D01*
X129805451Y-115900253D01*
X129533141Y-116089306D01*
X129452535Y-116453032D01*
X126641883Y-116453032D01*
X127049716Y-114681119D01*
X127547567Y-111342068D01*
X127725423Y-108574523D01*
X130883521Y-108574523D01*
X130885198Y-108621949D01*
X130950518Y-108799857D01*
X130989692Y-108906553D01*
X131280964Y-109143595D01*
X131793203Y-109343457D01*
X132560597Y-109516521D01*
X133617335Y-109673168D01*
X134997605Y-109823779D01*
X137054648Y-110023802D01*
X137033806Y-110560422D01*
X137012057Y-110890946D01*
X136953107Y-111519359D01*
X136874588Y-112210996D01*
X136818780Y-112715414D01*
X136809965Y-113124403D01*
X136885122Y-113338914D01*
X137057445Y-113448219D01*
X137344435Y-113457648D01*
X137695517Y-113161416D01*
X138013554Y-112522975D01*
X138293090Y-111550698D01*
X138424353Y-110880298D01*
X138533251Y-110109752D01*
X138575070Y-109504696D01*
X138576328Y-109371715D01*
X138575710Y-109086346D01*
X138528705Y-108882470D01*
X138384018Y-108738083D01*
X138090352Y-108631180D01*
X137596413Y-108539756D01*
X136850906Y-108441806D01*
X135802535Y-108315326D01*
X135040416Y-108224508D01*
X133724172Y-108082561D01*
X132708004Y-108001473D01*
X131956348Y-107983119D01*
X131433638Y-108029373D01*
X131104307Y-108142109D01*
X130932790Y-108323201D01*
X130883521Y-108574523D01*
X127725423Y-108574523D01*
X127756615Y-108089154D01*
X127667457Y-104970633D01*
X127662912Y-104916158D01*
X131241267Y-104916158D01*
X131275206Y-105286204D01*
X131541092Y-105936793D01*
X131956348Y-106314325D01*
X132023223Y-106375125D01*
X132664123Y-106535774D01*
X132902465Y-106524959D01*
X133150133Y-106410048D01*
X133208873Y-106099148D01*
X133168462Y-105798536D01*
X133030000Y-105551971D01*
X132980078Y-105515247D01*
X132852292Y-105203647D01*
X132975408Y-104797285D01*
X133322432Y-104402278D01*
X133578076Y-104247069D01*
X134292945Y-104052080D01*
X135154113Y-104030223D01*
X136055338Y-104169430D01*
X136890376Y-104457635D01*
X137552984Y-104882772D01*
X137640943Y-104970314D01*
X137781960Y-105220825D01*
X137817586Y-105599428D01*
X137765559Y-106217499D01*
X137645578Y-107251267D01*
X138285074Y-107251267D01*
X138332647Y-107250880D01*
X138856846Y-107151771D01*
X139195888Y-106837182D01*
X139255336Y-106732044D01*
X139442856Y-106224223D01*
X139567467Y-105629788D01*
X139591354Y-105148599D01*
X139402910Y-104301364D01*
X138904068Y-103620647D01*
X138101627Y-103111605D01*
X137002384Y-102779397D01*
X135613135Y-102629180D01*
X135355184Y-102621211D01*
X134137698Y-102648906D01*
X133186262Y-102807923D01*
X132438844Y-103113907D01*
X131833410Y-103582505D01*
X131532079Y-103917093D01*
X131300880Y-104360988D01*
X131241267Y-104916158D01*
X127662912Y-104916158D01*
X127633067Y-104558476D01*
X127399609Y-102471300D01*
X127066445Y-100529316D01*
X126610157Y-98646570D01*
X126007330Y-96737109D01*
X125234544Y-94714978D01*
X125121877Y-94456009D01*
X128737042Y-94456009D01*
X128791139Y-94796412D01*
X129116689Y-95210513D01*
X129142082Y-95220248D01*
X129743521Y-95450819D01*
X130679728Y-95521770D01*
X131276342Y-95501280D01*
X131933270Y-95448350D01*
X132388435Y-95376876D01*
X132574342Y-95336068D01*
X132695939Y-95353270D01*
X132638798Y-95496445D01*
X132380268Y-95809964D01*
X131897698Y-96338198D01*
X131229232Y-97134685D01*
X130831116Y-97783173D01*
X130712090Y-98263859D01*
X130875626Y-98562625D01*
X131325198Y-98665352D01*
X131617547Y-98582316D01*
X132123904Y-98304202D01*
X132717377Y-97891649D01*
X133307426Y-97408478D01*
X133803508Y-96918505D01*
X133963716Y-96747460D01*
X134155785Y-96643380D01*
X134425127Y-96691928D01*
X134896385Y-96889835D01*
X135355184Y-97076140D01*
X135373979Y-97083772D01*
X136256611Y-97372485D01*
X137125464Y-97583600D01*
X137876533Y-97693717D01*
X138405818Y-97679436D01*
X138817711Y-97508923D01*
X139113178Y-97231586D01*
X139252350Y-96914406D01*
X139239609Y-96572203D01*
X138976480Y-96170629D01*
X138805864Y-96013466D01*
X138419201Y-95819198D01*
X137803300Y-95635596D01*
X136894710Y-95440404D01*
X136384061Y-95338555D01*
X135716364Y-95195007D01*
X135242007Y-95079794D01*
X135040216Y-95011249D01*
X135010736Y-94974694D01*
X135021717Y-94724119D01*
X135271964Y-94464782D01*
X135678323Y-94290595D01*
X136033908Y-94179506D01*
X136682440Y-93825238D01*
X137265694Y-93337481D01*
X137718790Y-92787103D01*
X137976851Y-92244969D01*
X137974998Y-91781945D01*
X137749314Y-91561632D01*
X137276242Y-91547509D01*
X136552763Y-91762598D01*
X135568328Y-92208768D01*
X135566566Y-92209654D01*
X134639401Y-92652178D01*
X133837333Y-92966257D01*
X133039657Y-93185006D01*
X132125667Y-93341538D01*
X130974659Y-93468967D01*
X130104623Y-93567552D01*
X129427680Y-93698995D01*
X129009047Y-93875471D01*
X128796307Y-94120102D01*
X128737042Y-94456009D01*
X125121877Y-94456009D01*
X124268384Y-92494225D01*
X123262169Y-90225462D01*
X123162780Y-89984235D01*
X127319043Y-89984235D01*
X127321069Y-90805157D01*
X127559464Y-91514759D01*
X128012217Y-92045285D01*
X128657317Y-92328975D01*
X128967730Y-92357367D01*
X129482553Y-92227529D01*
X129776639Y-91901368D01*
X129804530Y-91451459D01*
X129520771Y-90950376D01*
X129441057Y-90848319D01*
X129316663Y-90383421D01*
X129504140Y-89904650D01*
X129979852Y-89487329D01*
X130056067Y-89443112D01*
X130962804Y-89015729D01*
X131939208Y-88704708D01*
X132908086Y-88520204D01*
X133792241Y-88472369D01*
X134514479Y-88571358D01*
X134997605Y-88827323D01*
X135234938Y-89198898D01*
X135355352Y-89715396D01*
X135447167Y-90146770D01*
X135743414Y-90452147D01*
X136155799Y-90521545D01*
X136592354Y-90343918D01*
X136961112Y-89908223D01*
X137116655Y-89486486D01*
X137129356Y-88732396D01*
X136867341Y-87985006D01*
X136366990Y-87330046D01*
X135664685Y-86853246D01*
X135561590Y-86808645D01*
X134576905Y-86546562D01*
X133446722Y-86479262D01*
X132242264Y-86587175D01*
X131034752Y-86850727D01*
X129895405Y-87250346D01*
X128895446Y-87766461D01*
X128106095Y-88379498D01*
X127598572Y-89069887D01*
X127575400Y-89119753D01*
X127319043Y-89984235D01*
X123162780Y-89984235D01*
X122372737Y-88066717D01*
X121631059Y-86068849D01*
X121017847Y-84177379D01*
X125142706Y-84177379D01*
X125281213Y-84720329D01*
X125740915Y-85166574D01*
X126028691Y-85314364D01*
X126375268Y-85416323D01*
X126845539Y-85473870D01*
X127517397Y-85496326D01*
X128468732Y-85493012D01*
X128647773Y-85490253D01*
X130583829Y-85372367D01*
X132314507Y-85103477D01*
X132536558Y-85055572D01*
X133446722Y-84847990D01*
X133491095Y-84837870D01*
X134170140Y-84653046D01*
X134638264Y-84477814D01*
X134960040Y-84288891D01*
X135200040Y-84062992D01*
X135505571Y-83615218D01*
X135626126Y-83092527D01*
X135438083Y-82675045D01*
X135284727Y-82529124D01*
X135101401Y-82426568D01*
X134849958Y-82422767D01*
X134439254Y-82520282D01*
X133778146Y-82721674D01*
X132705687Y-83055460D01*
X132582393Y-82233279D01*
X132557923Y-82062268D01*
X132529649Y-81612644D01*
X132624953Y-81348430D01*
X132878705Y-81141095D01*
X133202530Y-80917280D01*
X133790996Y-80396649D01*
X134146405Y-79904259D01*
X134252935Y-79483148D01*
X134094760Y-79176354D01*
X133656056Y-79026915D01*
X133473756Y-79037032D01*
X133100986Y-79142066D01*
X132559391Y-79367565D01*
X131814565Y-79729561D01*
X130832103Y-80244083D01*
X129577599Y-80927162D01*
X129112936Y-81184704D01*
X128092599Y-81760536D01*
X127178864Y-82289967D01*
X126423771Y-82742090D01*
X125879360Y-83086001D01*
X125597670Y-83290793D01*
X125330855Y-83609225D01*
X125142706Y-84177379D01*
X121017847Y-84177379D01*
X121012502Y-84160893D01*
X120492429Y-82271880D01*
X120046208Y-80330845D01*
X120011595Y-80161529D01*
X119781134Y-78770693D01*
X119607870Y-77245212D01*
X119496929Y-75681620D01*
X119453439Y-74176451D01*
X119479230Y-72979203D01*
X123049137Y-72979203D01*
X123236305Y-73494539D01*
X123740994Y-73911499D01*
X124549518Y-74162033D01*
X125652913Y-74241794D01*
X126951179Y-74234433D01*
X127279495Y-75114558D01*
X127607811Y-75994684D01*
X126057199Y-76770923D01*
X125536356Y-77043944D01*
X124770961Y-77527446D01*
X124319523Y-77966887D01*
X124159534Y-78388007D01*
X124268488Y-78816545D01*
X124445340Y-79089253D01*
X124753065Y-79331030D01*
X125191491Y-79416503D01*
X125828367Y-79355005D01*
X126731442Y-79155869D01*
X127000432Y-79087906D01*
X128505533Y-78681849D01*
X129884289Y-78267103D01*
X131091846Y-77859626D01*
X132083352Y-77475378D01*
X132813954Y-77130319D01*
X133238801Y-76840407D01*
X133470746Y-76566786D01*
X133656056Y-76163300D01*
X133714748Y-76035506D01*
X133686761Y-75563489D01*
X133379949Y-75228784D01*
X133322899Y-75201669D01*
X132982048Y-75137189D01*
X132460277Y-75178503D01*
X131678704Y-75330317D01*
X131566166Y-75354884D01*
X130909571Y-75479268D01*
X130393484Y-75546473D01*
X130121360Y-75542410D01*
X129986655Y-75397647D01*
X129771355Y-74991852D01*
X129551540Y-74432845D01*
X129385146Y-73959642D01*
X129302232Y-73637017D01*
X129349468Y-73405124D01*
X129569917Y-73193495D01*
X130006644Y-72931664D01*
X130702713Y-72549164D01*
X130936473Y-72405568D01*
X131500307Y-71926023D01*
X131903427Y-71387613D01*
X132095972Y-70869308D01*
X132028081Y-70450075D01*
X131998210Y-70406608D01*
X131607855Y-70154942D01*
X130955232Y-70099112D01*
X130028281Y-70239594D01*
X128814943Y-70576865D01*
X128565694Y-70655064D01*
X127505533Y-70963525D01*
X126369881Y-71264793D01*
X125365318Y-71503385D01*
X125240607Y-71530687D01*
X124289527Y-71766384D01*
X123642003Y-71999032D01*
X123250873Y-72258683D01*
X123068972Y-72575390D01*
X123049137Y-72979203D01*
X119479230Y-72979203D01*
X119482525Y-72826239D01*
X119589314Y-71727518D01*
X119753409Y-70844140D01*
X119997850Y-69835773D01*
X120275395Y-68924728D01*
X120559501Y-68196798D01*
X120823625Y-67737782D01*
X120844197Y-67719158D01*
X121132077Y-67556492D01*
X121711900Y-67278779D01*
X122550321Y-66900040D01*
X123613996Y-66434297D01*
X124869581Y-65895572D01*
X126283731Y-65297885D01*
X127823104Y-64655258D01*
X129454355Y-63981712D01*
X130955232Y-63368456D01*
X131144140Y-63291269D01*
X132859115Y-62597950D01*
X134565936Y-61915776D01*
X136231258Y-61258770D01*
X136448621Y-61161893D01*
X136501885Y-61053711D01*
X136405650Y-60963845D01*
X140006056Y-60963845D01*
X140112971Y-61596739D01*
X140510014Y-62335163D01*
X141132698Y-62897945D01*
X141537994Y-63090412D01*
X142370545Y-63244578D01*
X143223058Y-63154544D01*
X143987657Y-62838667D01*
X144556465Y-62315305D01*
X144747704Y-62000839D01*
X144806953Y-61630804D01*
X144621890Y-61191408D01*
X144352075Y-60819127D01*
X144003609Y-60660507D01*
X143460670Y-60694861D01*
X143155102Y-60725040D01*
X142760933Y-60657487D01*
X142448661Y-60410213D01*
X142187853Y-59939268D01*
X142073695Y-59587635D01*
X144156039Y-59587635D01*
X144201651Y-59624062D01*
X144456029Y-59666471D01*
X144672765Y-59559029D01*
X144692047Y-59367399D01*
X144592750Y-59271743D01*
X144299473Y-59312955D01*
X144180791Y-59414348D01*
X144156039Y-59587635D01*
X142073695Y-59587635D01*
X141948076Y-59200701D01*
X141857118Y-58817366D01*
X145730000Y-58817366D01*
X145836915Y-59450260D01*
X146233958Y-60188684D01*
X146856641Y-60751466D01*
X147261938Y-60943933D01*
X148094488Y-61098099D01*
X148947001Y-61008065D01*
X149711600Y-60692188D01*
X150280409Y-60168826D01*
X150471648Y-59854360D01*
X150530896Y-59484325D01*
X150345833Y-59044929D01*
X150076019Y-58672648D01*
X149727553Y-58514028D01*
X149184614Y-58548382D01*
X148879046Y-58578561D01*
X148484877Y-58511008D01*
X148172605Y-58263735D01*
X147911797Y-57792789D01*
X147822641Y-57518170D01*
X148860281Y-57518170D01*
X149486338Y-57447420D01*
X149512892Y-57444342D01*
X149863509Y-57386380D01*
X151811690Y-57386380D01*
X151918605Y-58019274D01*
X152315648Y-58757698D01*
X152938332Y-59320481D01*
X153343628Y-59512947D01*
X154176178Y-59667113D01*
X155028691Y-59577079D01*
X155793291Y-59261202D01*
X156362099Y-58737840D01*
X156553338Y-58423374D01*
X156612586Y-58053339D01*
X156427524Y-57613943D01*
X156157709Y-57241662D01*
X155809243Y-57083042D01*
X155266304Y-57117396D01*
X154960736Y-57147575D01*
X154566567Y-57080022D01*
X154254295Y-56832749D01*
X153993487Y-56361803D01*
X153753710Y-55623237D01*
X153504531Y-54573098D01*
X153388454Y-54036478D01*
X152874937Y-54647926D01*
X152676530Y-54911955D01*
X152238471Y-55713808D01*
X151928987Y-56593227D01*
X151811690Y-57386380D01*
X149863509Y-57386380D01*
X150033452Y-57358286D01*
X150425422Y-57252578D01*
X150594528Y-57158130D01*
X150738450Y-56956696D01*
X150738102Y-56947931D01*
X150583874Y-56870222D01*
X150143448Y-56978778D01*
X149408452Y-57275609D01*
X148860281Y-57518170D01*
X147822641Y-57518170D01*
X147672020Y-57054223D01*
X147422841Y-56004084D01*
X147306764Y-55467464D01*
X146793247Y-56078912D01*
X146594840Y-56342940D01*
X146156781Y-57144793D01*
X145847297Y-58024213D01*
X145730000Y-58817366D01*
X141857118Y-58817366D01*
X141698898Y-58150563D01*
X141582821Y-57613943D01*
X141069303Y-58225391D01*
X140870897Y-58489419D01*
X140432837Y-59291272D01*
X140123353Y-60170692D01*
X140006056Y-60963845D01*
X136405650Y-60963845D01*
X136320522Y-60884351D01*
X135869996Y-60589865D01*
X135130157Y-60042298D01*
X134211290Y-59020111D01*
X133575621Y-57784881D01*
X133216069Y-56325229D01*
X133206676Y-56261068D01*
X133178623Y-56117723D01*
X134305807Y-56117723D01*
X134544985Y-57286595D01*
X135134853Y-58457693D01*
X135564474Y-58960617D01*
X136254559Y-59537395D01*
X137021422Y-60018283D01*
X137725422Y-60303770D01*
X138257801Y-60385441D01*
X138733314Y-60275190D01*
X139080712Y-59894062D01*
X139364412Y-59198621D01*
X139591410Y-58610421D01*
X140005126Y-57935756D01*
X140639165Y-57225813D01*
X140649532Y-57215465D01*
X141184135Y-56731602D01*
X141582821Y-56446036D01*
X141650986Y-56397212D01*
X141966423Y-56272394D01*
X142038229Y-56278594D01*
X142373175Y-56501159D01*
X142603733Y-56989476D01*
X142691894Y-57670306D01*
X142692119Y-57698328D01*
X142743614Y-58197986D01*
X142923692Y-58431774D01*
X143290862Y-58425509D01*
X143903632Y-58205011D01*
X144278416Y-58037927D01*
X144592750Y-57839882D01*
X144676390Y-57787185D01*
X144921348Y-57453146D01*
X145128264Y-56914664D01*
X145340715Y-56444163D01*
X145750709Y-55810069D01*
X146259739Y-55186019D01*
X146798738Y-54647191D01*
X147298636Y-54268764D01*
X147306764Y-54265800D01*
X147690367Y-54125915D01*
X147770984Y-54133583D01*
X148104535Y-54363098D01*
X148330162Y-54860865D01*
X148413098Y-55557989D01*
X148455088Y-55937284D01*
X148565848Y-56166812D01*
X148575624Y-56171145D01*
X148833208Y-56143217D01*
X149314587Y-56004801D01*
X149924034Y-55782951D01*
X150144412Y-55693286D01*
X150583874Y-55479203D01*
X150804940Y-55371511D01*
X151266567Y-55018895D01*
X151648606Y-54550148D01*
X151831837Y-54300025D01*
X152356998Y-53700957D01*
X152917932Y-53187902D01*
X153388454Y-52861241D01*
X153433979Y-52829635D01*
X153824478Y-52694929D01*
X153929181Y-52713312D01*
X154215959Y-52973967D01*
X154418219Y-53474518D01*
X154494788Y-54127003D01*
X154538125Y-54506945D01*
X154652637Y-54738978D01*
X154668746Y-54746271D01*
X154929496Y-54675021D01*
X155360577Y-54399735D01*
X155899522Y-53975477D01*
X156483864Y-53457310D01*
X157051138Y-52900299D01*
X157538876Y-52359508D01*
X157884613Y-51890000D01*
X158252031Y-51110307D01*
X158328339Y-50381801D01*
X158085263Y-49712912D01*
X158011974Y-49601763D01*
X157361730Y-48958975D01*
X156422074Y-48429708D01*
X155241174Y-48030927D01*
X153867197Y-47779592D01*
X152348310Y-47692666D01*
X152308479Y-47692743D01*
X150593163Y-47781994D01*
X148705706Y-48026179D01*
X146712346Y-48405799D01*
X144679318Y-48901353D01*
X142672856Y-49493343D01*
X140759197Y-50162269D01*
X139004576Y-50888632D01*
X137475229Y-51652931D01*
X136237391Y-52435668D01*
X135634116Y-52942861D01*
X134856202Y-53914016D01*
X134411489Y-54982917D01*
X134305807Y-56117723D01*
X133178623Y-56117723D01*
X133007528Y-55243450D01*
X132684522Y-53966613D01*
X132257621Y-52493518D01*
X131746783Y-50887124D01*
X131171969Y-49210390D01*
X130553139Y-47526278D01*
X129910253Y-45897746D01*
X129531129Y-45004710D01*
X128680912Y-43153775D01*
X127717063Y-41213979D01*
X126695633Y-39292596D01*
X125672673Y-37496897D01*
X124704233Y-35934156D01*
X123207035Y-33644929D01*
X123777253Y-33585810D01*
X124020353Y-33577879D01*
X124274556Y-33639151D01*
X124534433Y-33813167D01*
X124835266Y-34138967D01*
X125212337Y-34655590D01*
X125700927Y-35402076D01*
X126336318Y-36417464D01*
X126484673Y-36658882D01*
X127720584Y-38815018D01*
X128958473Y-41214184D01*
X130153717Y-43757520D01*
X131261696Y-46346166D01*
X132237787Y-48881260D01*
X133037370Y-51263943D01*
X133235388Y-51904385D01*
X133446941Y-52573703D01*
X133603263Y-53050927D01*
X133680163Y-53260899D01*
X133702407Y-53267183D01*
X133915215Y-53137882D01*
X134294701Y-52820421D01*
X134777399Y-52366533D01*
X135121926Y-52039602D01*
X135987043Y-51328629D01*
X136955746Y-50697847D01*
X138110449Y-50097179D01*
X139533563Y-49476551D01*
X140720714Y-49016828D01*
X142848944Y-48304132D01*
X145022597Y-47704515D01*
X147182318Y-47228684D01*
X149268752Y-46887348D01*
X151222544Y-46691215D01*
X152348310Y-46665514D01*
X152984342Y-46650993D01*
X154494788Y-46777391D01*
X154655713Y-46804273D01*
X155674726Y-47044532D01*
X156668315Y-47383495D01*
X157526110Y-47778463D01*
X158137739Y-48186735D01*
X158281538Y-48305858D01*
X158387998Y-48330468D01*
X158428849Y-48168900D01*
X158415184Y-47764451D01*
X158358096Y-47060422D01*
X158307155Y-46535068D01*
X158033347Y-44611266D01*
X157629904Y-42639633D01*
X157117964Y-40687763D01*
X156518667Y-38823252D01*
X155853152Y-37113693D01*
X155142558Y-35626682D01*
X154408026Y-34429811D01*
X153779890Y-33555493D01*
X154471316Y-33555493D01*
X154510429Y-33555624D01*
G37*
%TD*%
M02*
